<svg width="2870" height="98" viewBox="0 0 2870 98" fill="none" xmlns="http://www.w3.org/2000/svg">
<g clip-path="url(#clip0_2052_9545)">
<path opacity="0.5" d="M1706 98L1706 85.207C1718.43 68.1254 1732.42 51.9906 1751.58 39.6993C1801.02 7.96367 1863.71 8.18214 1920.66 23.8962C1950.44 32.1093 1978.1 44.9912 2006.37 56.1011C2045.48 71.4754 2087.36 93.3229 2131.42 96.2926C2166.08 98.5987 2199.19 88.6702 2225.67 70.7552C2256.03 50.2104 2285.23 20.5867 2324.72 11.6858C2363.37 2.95487 2402.48 17.0991 2438.59 31.3324C2474.7 45.5657 2510.43 62.89 2550.34 66.1672C2607.44 70.9008 2658.62 47.6534 2711.79 34.739C2740.65 27.7316 2768.18 29.7464 2795.03 40.8078C2816.47 49.6196 2858.26 79.9473 2870.35 97.9999L2853 97.9999L1706 98Z" fill="white"/>
<path d="M2590 98L2598.5 98C2448.07 52.7956 2274.86 37.5919 2112.58 61.9432C2069.44 68.4142 2028.07 78.9848 1984.55 84.3548C1925.35 91.6644 1871.69 73.9875 1818.44 54.371C1759.31 32.5946 1701.05 17.3316 1635.63 21.7699C1548.81 27.6989 1455.09 64.8822 1378.5 97.9999L1386 97.9999L2590 98Z" fill="white"/>
<path opacity="0.5" d="M327.5 98L327.5 85.207C339.926 68.1254 353.919 51.9906 373.084 39.6993C422.519 7.96367 485.212 8.18214 542.161 23.8962C571.935 32.1093 599.597 44.9912 627.871 56.1011C666.983 71.4754 708.858 93.3229 752.922 96.2926C787.581 98.5987 820.691 88.6702 847.167 70.7552C877.534 50.2104 906.735 20.5867 946.22 11.6858C984.874 2.95487 1023.98 17.0991 1060.09 31.3324C1096.2 45.5657 1131.93 62.89 1171.84 66.1672C1228.94 70.9008 1280.12 47.6534 1333.29 34.739C1362.15 27.7316 1389.68 29.7464 1416.53 40.8078C1437.97 49.6196 1479.76 79.9473 1491.85 97.9999L1474.5 97.9999L327.5 98Z" fill="white"/>
<path d="M1211.5 98L1220.5 98C1070.07 52.7956 896.363 37.5919 734.084 61.9432C690.941 68.4142 649.573 78.9848 606.049 84.3548C546.852 91.6644 493.194 73.9875 439.937 54.371C380.81 32.5946 322.547 17.3316 257.129 21.7699C170.311 27.6989 76.5945 64.8822 0 97.9999L7.5 97.9999L1211.5 98Z" fill="white"/>
<path opacity="0.25" d="M1417.5 98C1417.5 98 1451.24 89 1417.5 55.2638C1383.76 21.5275 1304.5 25.5635 1245.15 29.4134C1168.4 34.3711 1096.44 60.1661 1019.56 64.0344C939.017 68.0597 858.623 48.4503 781.544 31.4813C705.982 14.8632 630.682 8.51141 553.124 19.4055C513.69 24.9449 476.929 35.8759 439.186 46.493C338.131 74.9192 203.403 116.358 108.501 54.7236L108.501 97.9999L1417.5 98Z" fill="white"/>
</g>
<defs>
<clipPath id="clip0_2052_9545">
<rect width="2870" height="97.9997" fill="white" transform="translate(2870 98) rotate(-180)"/>
</clipPath>
</defs>
</svg>
