<svg width="1491" height="98" viewBox="0 0 1491 98" fill="none" xmlns="http://www.w3.org/2000/svg">
<g clip-path="url(#clip0_2052_9545)">
<path opacity="0.5" d="M327 98L327 85.207C339.426 68.1254 353.419 51.9906 372.584 39.6993C422.019 7.96367 484.712 8.18214 541.661 23.8962C571.435 32.1093 599.097 44.9912 627.371 56.1011C666.483 71.4754 708.358 93.3229 752.422 96.2926C787.081 98.5987 820.191 88.6702 846.667 70.7552C877.034 50.2104 906.235 20.5867 945.72 11.6858C984.374 2.95487 1023.48 17.0991 1059.59 31.3324C1095.7 45.5657 1131.43 62.89 1171.34 66.1672C1228.44 70.9008 1279.62 47.6534 1332.79 34.739C1361.65 27.7316 1389.18 29.7464 1416.03 40.8078C1437.47 49.6196 1479.26 79.9473 1491.35 97.9999L1474 97.9999L327 98Z" fill="white"/>
<path d="M1211 98L1219.5 98C1069.07 52.7956 895.863 37.5919 733.584 61.9432C690.441 68.4142 649.073 78.9848 605.549 84.3548C546.352 91.6644 492.694 73.9875 439.437 54.371C380.31 32.5946 322.047 17.3316 256.629 21.7699C169.811 27.6989 76.0945 64.8822 -0.5 97.9999L7 97.9999L1211 98Z" fill="white"/>
</g>
<defs>
<clipPath id="clip0_2052_9545">
<rect width="1491" height="97.9999" fill="white" transform="translate(1491 98) rotate(-180)"/>
</clipPath>
</defs>
</svg>
