<?xml version="1.0" encoding="UTF-8"?>
<svg xmlns="http://www.w3.org/2000/svg" width="51" height="51" viewBox="0 0 51 51" fill="none">
  <g clip-path="url(#clip0_902_539)">
    <path d="M25.5 6.375C13.1743 6.375 3.1875 16.3648 3.1875 28.6875C3.18526 33.5026 4.74986 38.1877 7.64502 42.0352L3.65068 46.0285C3.50265 46.1765 3.38522 46.3522 3.30511 46.5456C3.22499 46.739 3.18376 46.9463 3.18376 47.1556C3.18376 47.3649 3.22499 47.5722 3.30511 47.7656C3.38522 47.9589 3.50265 48.1347 3.65068 48.2827L5.90484 50.5358C6.2037 50.8345 6.60892 51.0022 7.03143 51.0022C7.45393 51.0022 7.85915 50.8345 8.15801 50.5358L12.1523 46.5395C15.9997 49.4354 20.6845 51.0015 25.5 51.0015C30.3155 51.0015 35.0003 49.4354 38.8477 46.5395L42.842 50.5328C42.99 50.6809 43.1657 50.7983 43.3591 50.8784C43.5525 50.9585 43.7597 50.9998 43.9691 50.9998C44.1784 50.9998 44.3857 50.9585 44.5791 50.8784C44.7724 50.7983 44.9482 50.6809 45.0962 50.5328L47.3493 48.2797C47.4973 48.1317 47.6148 47.956 47.6949 47.7626C47.775 47.5692 47.8162 47.3619 47.8162 47.1526C47.8162 46.9433 47.775 46.736 47.6949 46.5426C47.6148 46.3492 47.4973 46.1735 47.3493 46.0255L43.351 42.0352C46.2475 38.1881 47.8135 33.503 47.8125 28.6875C47.8125 16.3648 37.8217 6.375 25.5 6.375ZM25.5 46.2188C22.0326 46.2188 18.6432 45.1906 15.7602 43.2642C12.8772 41.3378 10.6301 38.5998 9.30324 35.3964C7.97634 32.193 7.62916 28.6681 8.30561 25.2673C8.98206 21.8666 10.6517 18.7428 13.1035 16.291C15.5553 13.8392 18.6791 12.1696 22.0798 11.4931C25.4806 10.8167 29.0055 11.1638 32.2089 12.4907C35.4123 13.8176 38.1503 16.0647 40.0767 18.9477C42.0031 21.8307 43.0312 25.2201 43.0312 28.6875C43.0312 33.3371 41.1842 37.7962 37.8965 41.084C34.6087 44.3717 30.1496 46.2188 25.5 46.2188ZM9.5625 0C7.02637 0 4.59411 1.00747 2.80079 2.80079C1.00747 4.59411 0 7.02637 0 9.5625C0.00736485 11.3755 0.536435 13.1481 1.52402 14.6685L16.057 2.55797C14.2938 0.914287 11.973 0.000203815 9.5625 0ZM27.8906 29.1328V16.7344C27.8906 16.523 27.8067 16.3203 27.6572 16.1709C27.5078 16.0215 27.3051 15.9375 27.0938 15.9375H23.9062C23.6949 15.9375 23.4922 16.0215 23.3428 16.1709C23.1933 16.3203 23.1094 16.523 23.1094 16.7344V29.8988C23.1091 30.3769 23.2164 30.849 23.4233 31.2801C23.6302 31.7111 23.9314 32.0901 24.3047 32.389L30.7335 37.5258C30.9007 37.6528 31.1089 37.7138 31.3182 37.6972C31.5277 37.6736 31.7193 37.5679 31.8511 37.4033L33.8433 34.9131C33.909 34.8313 33.958 34.7373 33.9873 34.6366C34.0167 34.5358 34.0258 34.4302 34.0143 34.3259C34.0027 34.2216 33.9706 34.1206 33.9199 34.0287C33.8692 33.9368 33.8009 33.8559 33.7188 33.7905L27.8906 29.1328ZM41.4375 0C39.028 0.000464329 36.7081 0.913745 34.945 2.55598L49.477 14.6655C50.4635 13.1457 50.9921 11.3743 51 9.5625C51 7.02637 49.9925 4.59411 48.1992 2.80079C46.4059 1.00747 43.9736 0 41.4375 0Z" fill="#D85604"></path>
  </g>
  <defs>
    <clipPath id="clip0_902_539">
      <rect width="51" height="51" fill="white"></rect>
    </clipPath>
  </defs>
</svg>
