<?xml version="1.0" encoding="UTF-8"?>
<svg xmlns="http://www.w3.org/2000/svg" width="25" height="25" viewBox="0 0 25 25" fill="none">
  <g clip-path="url(#clip0_846_241)">
    <path d="M5.41003 17.7617C5.41003 17.3975 5.11264 17.1025 4.74547 17.1025H1.42262C1.05545 17.1025 0.758057 17.3975 0.758057 17.7617V23.0791C0.758057 23.4433 1.05545 23.7383 1.42262 23.7383H4.74547C5.11264 23.7383 5.41003 23.4433 5.41003 23.0791V17.7617Z" fill="#D85604"></path>
    <path d="M10.7709 13.1475H7.44802C7.08084 13.1475 6.78345 13.4424 6.78345 13.8066V23.0791C6.78345 23.4433 7.08084 23.7383 7.44802 23.7383H10.7709C11.138 23.7383 11.4354 23.4433 11.4354 23.0791V13.8066C11.4354 13.4424 11.138 13.1475 10.7709 13.1475Z" fill="#D85604"></path>
    <path d="M16.7518 11.8291H13.429C13.0618 11.8291 12.7644 12.1241 12.7644 12.4883V23.0791C12.7644 23.4433 13.0618 23.7383 13.429 23.7383H16.7518C17.119 23.7383 17.4164 23.4433 17.4164 23.0791V12.4883C17.4164 12.1241 17.119 11.8291 16.7518 11.8291Z" fill="#D85604"></path>
    <path d="M22.7774 6.55566H19.4546C19.0874 6.55566 18.79 6.85065 18.79 7.21484V23.0791C18.79 23.4433 19.0874 23.7383 19.4546 23.7383H22.7774C23.1446 23.7383 23.442 23.4433 23.442 23.0791V7.21484C23.442 6.85065 23.1446 6.55566 22.7774 6.55566Z" fill="#D85604"></path>
    <path d="M3.12823 15.7402C4.22753 15.7402 5.12193 14.8531 5.12193 13.7627C5.12193 13.5774 5.08787 13.4018 5.03969 13.2318L7.62901 11.4188C7.9541 11.6477 8.34896 11.7852 8.77705 11.7852C9.78568 11.7852 10.6128 11.0359 10.7439 10.0705L13.3952 9.51675C13.7462 10.0842 14.3717 10.4668 15.0905 10.4668C16.1898 10.4668 17.0842 9.57965 17.0842 8.48926C17.0842 8.22559 17.0296 7.97482 16.9349 7.74466L20.1156 4.9404C20.4008 5.09654 20.7234 5.19336 21.0716 5.19336C22.1709 5.19336 23.0653 4.30621 23.0653 3.21582C23.0653 2.12543 22.1709 1.23828 21.0716 1.23828C19.9723 1.23828 19.0779 2.12543 19.0779 3.21582C19.0779 3.47949 19.1324 3.73026 19.2271 3.96042L16.0465 6.76468C15.7612 6.60854 15.4387 6.51172 15.0905 6.51172C14.0818 6.51172 13.2547 7.26099 13.1236 8.22641L10.4723 8.78012C10.1213 8.21268 9.49576 7.83008 8.77705 7.83008C7.67775 7.83008 6.78335 8.71722 6.78335 9.80762C6.78335 9.99287 6.81741 10.1685 6.86559 10.3385L4.27627 12.1516C3.95118 11.9226 3.55632 11.7852 3.12823 11.7852C2.02892 11.7852 1.13452 12.6723 1.13452 13.7627C1.13452 14.8531 2.02892 15.7402 3.12823 15.7402Z" fill="#D85604"></path>
  </g>
  <defs>
    <clipPath id="clip0_846_241">
      <rect width="24.1962" height="24" fill="white" transform="translate(0.0136719 0.5)"></rect>
    </clipPath>
  </defs>
</svg>
