<svg xmlns="http://www.w3.org/2000/svg" width="25" height="25" fill="none" viewBox="0 0 25 25"><g clip-path="url(#clip0_846_181)"><path fill="#D85604" d="M20.5905 13.4052C19.0457 14.5543 17.1599 15.3521 15.1075 15.7457C14.9002 17.2019 13.6362 18.3259 12.1118 18.3259C10.5874 18.3259 9.3233 17.2019 9.11602 15.7457C7.0636 15.3521 5.17781 14.5543 3.63303 13.4052C1.29905 11.6689 0.0136719 9.34142 0.0136719 6.85156V19.625C0.0136719 21.5345 1.57986 23.0879 3.50487 23.0879H20.7187C22.6437 23.0879 24.2099 21.5345 24.2099 19.625V6.85156C24.2099 9.34142 22.9245 11.6689 20.5905 13.4052Z"/><path fill="#D85604" d="M9.08557 14.303V13.0258C9.08557 12.6374 9.40295 12.3226 9.79444 12.3226H14.429C14.8205 12.3226 15.1379 12.6374 15.1379 13.0258V14.303C19.5578 13.3513 22.7921 10.3713 22.7921 6.85156V6.14844H17.0916V4.75119C17.0916 3.1857 15.8075 1.91211 14.2293 1.91211H9.99425C8.41601 1.91211 7.13196 3.1857 7.13196 4.75119V6.14844H1.4314V6.85156C1.4314 10.3713 4.66565 13.3513 9.08557 14.303ZM8.54966 4.75119C8.54966 3.96111 9.19771 3.31836 9.9942 3.31836H14.2292C15.0257 3.31836 15.6738 3.96111 15.6738 4.75119V6.14844H8.54961V4.75119H8.54966Z"/><path fill="#D85604" d="M13.7203 13.7288H10.5034V15.3242C10.5034 16.2039 11.225 16.9196 12.1118 16.9196C12.9987 16.9196 13.7203 16.2039 13.7203 15.3242V13.7288Z"/></g><defs><clipPath id="clip0_846_181"><rect width="24.196" height="24" fill="#fff" transform="translate(0.0136719 0.5)"/></clipPath></defs></svg>