<svg xmlns="http://www.w3.org/2000/svg" xmlns:svgjs="http://svgjs.com/svgjs" xmlns:xlink="http://www.w3.org/1999/xlink" width="512" height="512" x="0" y="0" version="1.1" viewBox="0 0 64 64" style="enable-background:new 0 0 512 512" xml:space="preserve"><g><path fill="#fff" d="M9.226 44.547a1 1 0 0 0-1.751.967c10.41 19.2 38.644 19.195 49.05 0a1 1 0 0 0-1.75-.967 26.004 26.004 0 0 1-45.55 0zM51.72 15.08a1 1 0 0 0 1.52-1.3C42.541.829 21.458.83 10.76 13.782a1 1 0 0 0 1.52 1.299c9.934-12.025 29.507-12.023 39.44 0z" data-original="#000000"/><path fill="#fff" d="M18.924 14.317a1 1 0 0 0 1.192 1.606 20.025 20.025 0 0 1 23.768 0 1 1 0 0 0 1.192-1.606 22.03 22.03 0 0 0-26.152 0zM32 54a21.87 21.87 0 0 0 17.234-8.349 1 1 0 0 0-1.568-1.242c-7.67 10.057-23.663 10.056-31.332 0a1 1 0 0 0-1.568 1.242A21.87 21.87 0 0 0 32 54z" data-original="#000000"/><path fill="#fff" d="M4.528 34.568a4.41 4.41 0 0 0 3.851 6.464h11.128a5.024 5.024 0 0 0 4.998 5.053h14.99a5.002 5.002 0 0 0 4.998-5.053h11.128a4.41 4.41 0 0 0 3.851-6.464 11.547 11.547 0 0 0-6.347-5.414 6.266 6.266 0 0 0 2.442-4.96c-.298-8.31-12.26-8.31-12.557 0a6.266 6.266 0 0 0 2.444 4.96 11.523 11.523 0 0 0-5.923 4.73 13.476 13.476 0 0 0-3.356-1.632 7.241 7.241 0 0 0 3.075-5.917c-.34-9.592-14.16-9.595-14.5 0a7.241 7.241 0 0 0 3.075 5.917 13.475 13.475 0 0 0-3.357 1.632 11.566 11.566 0 0 0-5.922-4.729 6.266 6.266 0 0 0 2.444-4.96c-.288-8.302-12.264-8.315-12.557 0a6.266 6.266 0 0 0 2.442 4.959 11.548 11.548 0 0 0-6.347 5.414zM45.01 24.194a4.279 4.279 0 0 1 8.557 0 4.279 4.279 0 0 1-8.557 0zm4.271 6.279a9.554 9.554 0 0 1 8.43 5.043 2.398 2.398 0 0 1-2.09 3.516H44.049a12.831 12.831 0 0 0-2.938-3.912 9.566 9.566 0 0 1 8.17-4.647zm-22.53-4.138c.22-6.938 10.279-6.936 10.498 0-.22 6.938-10.28 6.937-10.499 0zm15.383 13.31a3.026 3.026 0 0 1-2.639 4.44h-14.99a3.008 3.008 0 0 1-2.64-4.44c4.192-8.022 16.08-8.021 20.27 0zm-31.701-15.45a4.279 4.279 0 0 1 8.557 0 4.279 4.279 0 0 1-8.557 0zm4.27 6.278a9.58 9.58 0 0 1 8.186 4.648 12.833 12.833 0 0 0-2.938 3.911H8.38a2.398 2.398 0 0 1-2.09-3.516 9.554 9.554 0 0 1 8.413-5.043z" data-original="#000000"/></g></svg>