<svg xmlns="http://www.w3.org/2000/svg" width="25" height="25" fill="none" viewBox="0 0 25 25"><g clip-path="url(#clip0_846_346)"><path fill="#D85604" d="M18.4213 4.59791C18.4213 4.03484 18.1997 3.50478 17.7982 3.10653L15.7934 1.118C15.3975 0.725234 14.8355 0.5 14.2761 0.5H14.1543V4.71875H18.4213L18.4213 4.59791Z"/><path fill="#D85604" d="M12.9594 15.0095C13.0951 14.601 13.3319 14.2206 13.6406 13.9123L18.4402 9.17075V6.125H13.4592C13.0674 6.125 12.7734 5.81052 12.7734 5.42188V0.5H2.14029C0.967625 0.5 0.0136719 1.44622 0.0136719 2.60938V22.3906C0.0136719 23.5538 0.967625 24.5 2.14029 24.5H16.2947C17.4674 24.5 18.4402 23.5538 18.4402 22.3906V17.1429L17.6612 17.8969C17.3456 18.2072 16.976 18.4331 16.5592 18.5712L14.3052 19.3175L13.9618 19.3361C13.3942 19.3361 12.857 19.0621 12.5233 18.6035C12.1924 18.1468 12.1025 17.555 12.2824 17.0201L12.9594 15.0095ZM3.55804 13.1562H10.6237C11.0156 13.1562 11.3326 13.4707 11.3326 13.8594C11.3326 14.248 11.0156 14.5625 10.6237 14.5625H3.55804C3.16622 14.5625 2.84916 14.248 2.84916 13.8594C2.84916 13.4707 3.16622 13.1562 3.55804 13.1562ZM2.84916 11.0469C2.84916 10.6582 3.16622 10.3438 3.55804 10.3438H10.6237C11.0156 10.3438 11.3326 10.6582 11.3326 11.0469C11.3326 11.4355 11.0156 11.75 10.6237 11.75H3.55804C3.16622 11.75 2.84916 11.4355 2.84916 11.0469ZM2.84916 16.6719C2.84916 16.2832 3.16622 15.9688 3.55804 15.9688H10.6237C11.0156 15.9688 11.3326 16.2832 11.3326 16.6719C11.3326 17.0605 11.0156 17.375 10.6237 17.375H3.55804C3.16622 17.375 2.84916 17.0605 2.84916 16.6719ZM13.4592 20.1875C13.8511 20.1875 14.1681 20.502 14.1681 20.8906C14.1681 21.2793 13.8511 21.5938 13.4592 21.5938H9.206C8.81418 21.5938 8.49713 21.2793 8.49713 20.8906C8.49713 20.502 8.81418 20.1875 9.206 20.1875H13.4592ZM3.55804 8.9375C3.16622 8.9375 2.84916 8.62302 2.84916 8.23438C2.84916 7.84573 3.16622 7.53125 3.55804 7.53125H13.4592C13.8511 7.53125 14.1681 7.84573 14.1681 8.23438C14.1681 8.62302 13.8511 8.9375 13.4592 8.9375H3.55804Z"/><path fill="#D85604" d="M14.2437 15.6316L13.627 17.4668C13.5345 17.7417 13.7983 18.0032 14.0755 17.9114L15.9246 17.2988L14.2437 15.6316Z"/><path fill="#D85604" d="M19.7492 9.84253L15.0806 14.4733L17.094 16.4704C18.1492 15.4236 20.2023 13.3868 21.7624 11.8394L19.7492 9.84253Z"/><path fill="#D85604" d="M23.7933 7.82576C23.5441 7.57718 23.1772 7.43506 22.7881 7.43506C22.399 7.43506 22.0322 7.57718 21.7816 7.82646L20.7515 8.8482L22.7646 10.845C23.3285 10.2856 23.7183 9.89895 23.7948 9.82315C24.3485 9.27307 24.3484 8.37711 23.7933 7.82576Z"/><path fill="#000" d="M23.7947 9.82322L23.7948 9.82312C23.7966 9.82134 23.7974 9.82054 23.7988 9.81909C23.7974 9.82059 23.7966 9.82139 23.7947 9.82322Z"/><path fill="#000" d="M23.7988 9.8191C23.8011 9.81685 23.8037 9.81423 23.8051 9.81287C23.8037 9.81427 23.8011 9.81685 23.7988 9.8191Z"/><path fill="#000" d="M23.8052 9.81289C23.8099 9.80825 23.8098 9.80835 23.8052 9.81289Z"/></g><defs><clipPath id="clip0_846_346"><rect width="24.196" height="24" fill="#fff" transform="translate(0.0136719 0.5)"/></clipPath></defs></svg>