<svg xmlns="http://www.w3.org/2000/svg" width="25" height="25" fill="none" viewBox="0 0 25 25"><g clip-path="url(#clip0_846_450)"><path fill="#D85604" d="M7.44929 2.96932C11.2032 1.16343 15.6457 1.7061 18.8359 4.27224L18.4121 4.2128C18.0246 4.15824 17.6658 4.42608 17.611 4.81054C17.5562 5.19505 17.826 5.55079 18.2137 5.60516C18.2137 5.60516 20.7541 5.96136 20.7566 5.96169C21.2167 6.02619 21.6226 5.62274 21.5577 5.16707L21.1983 2.64476C21.1435 2.26025 20.7844 1.99255 20.3972 2.04697C20.0095 2.10134 19.7397 2.45712 19.7945 2.84158L19.8578 3.28525C16.2355 0.288284 11.1338 -0.36599 6.83059 1.70403C6.47833 1.87348 6.33131 2.29409 6.5021 2.64349C6.67294 2.99294 7.09703 3.13881 7.44929 2.96932Z"/><path fill="#D85604" d="M16.3631 17.2354H19.1986C19.5901 17.2354 19.9075 16.9206 19.9075 16.5323V10.51C20.1022 10.484 20.2852 10.3786 20.4027 10.2037C20.6199 9.88063 20.5319 9.44409 20.2061 9.2287L18.1741 7.88481C17.936 7.72736 17.6257 7.72736 17.3876 7.88481L15.3555 9.2287C15.0298 9.44414 14.9418 9.88068 15.1589 10.2037C15.2765 10.3787 15.4595 10.4837 15.6542 10.5098V16.5323C15.6543 16.9206 15.9717 17.2354 16.3631 17.2354Z"/><path fill="#D85604" d="M10.6922 17.2354H13.5277C13.9191 17.2354 14.2365 16.9206 14.2365 16.5323V12.9735C14.4313 12.9474 14.6142 12.8421 14.7318 12.6672C14.949 12.3441 14.861 11.9075 14.5352 11.6922L12.5032 10.3224C12.265 10.165 11.9548 10.165 11.7167 10.3224L9.68462 11.6922C9.35887 11.9076 9.27088 12.3441 9.48802 12.6672C9.6056 12.8421 9.78858 12.9472 9.98333 12.9733V16.5323C9.98333 16.9206 10.3007 17.2354 10.6922 17.2354Z"/><path fill="#D85604" d="M3.81713 13.8372C3.9347 14.0121 4.11768 14.1174 4.31243 14.1435V16.5322C4.31243 16.9205 4.62981 17.2354 5.0213 17.2354H7.85675C8.24824 17.2354 8.56562 16.9205 8.56562 16.5322V14.1433C8.76037 14.1172 8.94335 14.0121 9.06093 13.8372C9.27807 13.5141 9.19008 13.0775 8.86433 12.8622L6.83226 11.5184C6.59413 11.3609 6.28393 11.3609 6.04579 11.5184L4.01372 12.8622C3.68797 13.0775 3.59998 13.5141 3.81713 13.8372Z"/><path fill="#D85604" d="M23.0239 7.32361C22.855 6.97327 22.4316 6.82519 22.0785 6.99263C21.7253 7.16021 21.5759 7.58001 21.7448 7.93031C23.5325 11.6379 22.9762 16.0254 20.4059 19.172L20.4658 18.752C20.5206 18.3675 20.2508 18.0117 19.8632 17.9574C19.4759 17.9031 19.1169 18.1706 19.0621 18.5552C19.0621 18.5552 18.703 21.0746 18.7026 21.0775C18.6432 21.4945 18.9804 21.879 19.4044 21.879C19.4374 21.879 22.0467 21.5156 22.0467 21.5156C22.4343 21.4612 22.7041 21.1054 22.6493 20.7209C22.5945 20.3364 22.2356 20.0686 21.8482 20.1232L21.4018 20.1858C22.77 18.562 23.6749 16.621 24.0364 14.5145C24.4578 12.058 24.1078 9.57148 23.0239 7.32361Z"/><path fill="#D85604" d="M16.7087 22.0624C12.9711 23.8309 8.55417 23.2771 5.38469 20.7299L5.80793 20.7892C6.19549 20.8439 6.55427 20.576 6.60904 20.1915C6.66386 19.807 6.39402 19.4513 6.00641 19.3969L3.46348 19.0404C3.00381 18.976 2.59744 19.3793 2.66237 19.835C2.66237 19.835 3.02153 22.3551 3.02181 22.3573C3.07465 22.7282 3.44567 23.008 3.82292 22.9551C4.21058 22.9007 4.48037 22.5449 4.4256 22.1605L4.36227 21.716C6.56831 23.5403 9.32792 24.4974 12.1214 24.4974C13.8844 24.4974 15.6611 24.1162 17.3192 23.3316C17.6725 23.1644 17.8223 22.7447 17.6538 22.3942C17.4851 22.0437 17.062 21.8951 16.7087 22.0624Z"/><path fill="#D85604" d="M3.81393 5.82974L3.75405 6.25006C3.69923 6.63458 3.96907 6.99031 4.35668 7.04468C4.39033 7.04941 4.42374 7.05171 4.45682 7.05171C4.8043 7.05171 5.10774 6.79803 5.15779 6.44694C5.15779 6.44694 5.51704 3.92622 5.51723 3.92458C5.58226 3.46839 5.1757 3.0656 4.71612 3.12996L2.17319 3.48649C1.78553 3.54086 1.51574 3.89664 1.57051 4.2811C1.62533 4.66561 1.98416 4.93327 2.37162 4.87885L2.81896 4.81613C-0.199901 8.40606 -0.861224 13.4629 1.22052 17.729C1.34292 17.9798 1.59579 18.1259 1.85907 18.1259C1.96265 18.1259 2.0679 18.1033 2.16738 18.0555C2.51978 17.8864 2.66717 17.4659 2.49657 17.1163C0.68065 13.3948 1.22912 8.99147 3.81393 5.82974Z"/></g><defs><clipPath id="clip0_846_450"><rect width="24.196" height="24" fill="#fff" transform="translate(0.0136719 0.5)"/></clipPath></defs></svg>