<?xml version="1.0" encoding="UTF-8"?>
<svg xmlns="http://www.w3.org/2000/svg" width="41" height="41" viewBox="0 0 41 41" fill="none">
  <path d="M37.1562 5.125H3.84375C1.72088 5.125 0 6.84588 0 8.96875V32.0312C0 34.1541 1.72088 35.875 3.84375 35.875H37.1562C39.2791 35.875 41 34.1541 41 32.0312V8.96875C41 6.84588 39.2791 5.125 37.1562 5.125ZM37.1562 8.96875V12.2363C35.3607 13.6985 32.4983 15.9721 26.3788 20.7639C25.0302 21.8247 22.3588 24.3731 20.5 24.3434C18.6415 24.3735 15.9693 21.8243 14.6212 20.7639C8.5027 15.9728 5.6395 13.6987 3.84375 12.2363V8.96875H37.1562ZM3.84375 32.0312V17.1686C5.67866 18.6301 8.2808 20.681 12.247 23.7867C13.9973 25.1645 17.0624 28.2059 20.5 28.1874C23.9207 28.2059 26.947 25.2086 28.7523 23.7874C32.7184 20.6817 35.3213 18.6303 37.1562 17.1687V32.0312H3.84375Z" fill="#D85604"></path>
</svg>
