<?xml version="1.0" encoding="UTF-8"?>
<svg xmlns="http://www.w3.org/2000/svg" width="41" height="41" viewBox="0 0 41 41" fill="none">
  <path d="M20.5 0C12.004 0 5.125 6.88784 5.125 15.375C5.125 21.0699 7.04615 22.8496 17.2385 39.1922C18.7428 41.604 22.2589 41.6011 23.7614 39.1922C33.9591 22.841 35.875 21.0688 35.875 15.375C35.875 6.87895 28.9872 0 20.5 0ZM20.5 37.1562C10.2961 20.7952 8.96875 19.7623 8.96875 15.375C8.96875 9.00647 14.1315 3.84375 20.5 3.84375C26.8685 3.84375 32.0312 9.00647 32.0312 15.375C32.0312 19.7435 30.8168 20.6141 20.5 37.1562ZM14.0938 15.375C14.0938 11.8369 16.9619 8.96875 20.5 8.96875C24.0381 8.96875 26.9062 11.8369 26.9062 15.375C26.9062 18.9131 24.0381 21.7812 20.5 21.7812C16.9619 21.7812 14.0938 18.9131 14.0938 15.375Z" fill="#D85604"></path>
</svg>
