<?xml version="1.0" encoding="UTF-8"?>
<svg xmlns="http://www.w3.org/2000/svg" width="25" height="25" viewBox="0 0 25 25" fill="none">
  <g clip-path="url(#clip0_846_327)">
    <path d="M14.4469 12.3744C17.7474 12.3744 20.4322 9.71094 20.4322 6.43719C20.4322 3.16344 17.7474 0.5 14.4469 0.5C11.1464 0.5 8.46118 3.16344 8.46118 6.43719C8.46118 9.71094 11.1464 12.3744 14.4469 12.3744ZM13.738 2.94734V2.78609C13.738 2.3975 14.0551 2.08297 14.4469 2.08297C14.8382 2.08297 15.1558 2.3975 15.1558 2.78609V2.94828C15.9993 3.12781 16.634 3.87313 16.634 4.76281C16.634 5.15094 16.3164 5.46594 15.9251 5.46594C15.5334 5.46594 15.2163 5.15094 15.2163 4.76281C15.2163 4.51484 15.0126 4.31281 14.7626 4.31281H14.127C13.877 4.31281 13.6733 4.51484 13.6733 4.76281C13.6733 4.90484 13.7418 5.03984 13.8571 5.12422L14.4469 5.55734L15.8798 6.60922C16.3505 6.95469 16.634 7.50734 16.6378 8.08859V8.09516C16.6411 8.59109 16.4497 9.05891 16.0981 9.41187C15.8372 9.67391 15.5112 9.84969 15.1558 9.92375V10.0883C15.1558 10.4769 14.8382 10.7914 14.4469 10.7914C14.0551 10.7914 13.738 10.4769 13.738 10.0883V9.92609C13.3921 9.85297 13.0741 9.68422 12.817 9.43203C12.4611 9.08375 12.2636 8.61875 12.2607 8.12281C12.2584 7.73469 12.5736 7.41781 12.9649 7.41547H12.9696C13.359 7.41547 13.6761 7.72766 13.6785 8.11438C13.6794 8.35705 13.8763 8.56156 14.1345 8.56156C14.5262 8.55922 14.3803 8.56006 14.7692 8.55781C15.0208 8.55584 15.222 8.3533 15.22 8.10453V8.09797C15.2191 7.95734 15.1506 7.82328 15.0362 7.73938L14.4469 7.30672L13.0136 6.25484C12.5391 5.90609 12.2555 5.34828 12.2555 4.76281C12.2555 3.87125 12.8921 3.12547 13.738 2.94734Z" fill="#D85604"></path>
    <path d="M4.74842 15.7527C4.56671 15.4403 4.16308 15.3316 3.84612 15.5129L0.511675 17.4222C0.195943 17.6034 0.0876274 18.004 0.269902 18.3176L3.67788 24.1723C3.8603 24.4854 4.26388 24.5929 4.58018 24.4122L7.91462 22.5025C8.23083 22.3216 8.33872 21.9211 8.15639 21.6075L4.74842 15.7527Z" fill="#D85604"></path>
    <path d="M23.8545 14.5841C23.5337 14.1421 22.9127 14.0422 22.4675 14.3605C21.1169 15.3256 18.5234 17.1791 18.3173 17.3267C18.2223 17.4069 18.1226 17.4796 18.0186 17.5438C17.6108 17.7983 17.1377 17.9342 16.6439 17.9342H13.2484C12.8571 17.9342 12.5395 17.6197 12.5395 17.2311C12.5395 16.8421 12.8576 16.528 13.2484 16.528H16.8797C17.4133 16.528 17.8405 16.0874 17.8183 15.5572C17.7975 15.0542 17.3646 14.6642 16.857 14.6642H14.0929C13.9058 14.4678 13.7007 14.2878 13.4809 14.1271C12.7252 13.5744 11.7914 13.2477 10.7806 13.2477C8.98334 13.2477 7.19509 14.3708 6.45361 15.8699L9.35338 20.8513H14.7928C15.8608 20.8513 16.9128 20.5803 17.8386 20.0521C18.1595 19.8692 18.503 19.6494 18.8754 19.3841C20.4359 18.2722 23.6263 15.9622 23.6287 15.9608C24.0748 15.643 24.1759 15.0261 23.8545 14.5841Z" fill="#D85604"></path>
  </g>
  <defs>
    <clipPath id="clip0_846_327">
      <rect width="24.1962" height="24" fill="white" transform="translate(0.0136719 0.5)"></rect>
    </clipPath>
  </defs>
</svg>
