<svg xmlns="http://www.w3.org/2000/svg" width="25" height="25" fill="none" viewBox="0 0 25 25"><g clip-path="url(#clip0_846_217)"><path fill="#D85604" d="M4.26689 10.8594C2.7034 10.8594 1.4314 9.59769 1.4314 8.04688C1.4314 6.49606 2.7034 5.23438 4.26689 5.23438C5.83038 5.23438 7.10238 6.49606 7.10238 8.04688C7.10238 9.59769 5.83038 10.8594 4.26689 10.8594Z"/><path fill="#D85604" d="M14.1912 8.98438C12.6277 8.98438 11.3557 7.72269 11.3557 6.17188C11.3557 4.62106 12.6277 3.35938 14.1912 3.35938C15.7547 3.35938 17.0267 4.62106 17.0267 6.17188C17.0267 7.72269 15.7547 8.98438 14.1912 8.98438Z"/><path fill="#D85604" d="M23.501 8.04688H20.6655C20.274 8.04688 19.9566 8.36169 19.9566 8.75C19.9566 9.13831 20.274 9.45312 20.6655 9.45312H21.7896L14.5219 16.6619L12.6602 14.8153C12.3835 14.5408 11.9346 14.5408 11.6578 14.8153L6.19443 20.2344H0.722545C0.331058 20.2344 0.0136719 20.5492 0.0136719 20.9375C0.0136719 21.3258 0.331058 21.6406 0.722545 21.6406H6.48804C6.67608 21.6406 6.85637 21.5666 6.98926 21.4347L12.159 16.3069L14.0207 18.1535C14.2975 18.428 14.7464 18.428 15.0232 18.1535L22.7921 10.4475V11.5625C22.7921 11.9508 23.1095 12.2656 23.501 12.2656C23.8925 12.2656 24.2099 11.9508 24.2099 11.5625V8.75C24.2099 8.36169 23.8925 8.04688 23.501 8.04688Z"/><path fill="#D85604" d="M16.5411 9.68652C15.8674 10.1311 15.0594 10.3907 14.1912 10.3907C13.3231 10.3907 12.5151 10.1312 11.8414 9.68652C10.6943 10.4421 9.93799 11.735 9.93799 13.2032V14.5326L10.6554 13.821C11.0571 13.4226 11.5911 13.2032 12.1591 13.2032C12.7271 13.2032 13.2612 13.4226 13.6628 13.8209L14.522 14.6732L17.9657 11.2574C17.632 10.6217 17.1398 10.081 16.5411 9.68652Z"/><path fill="#D85604" d="M1.91704 11.5615C0.769992 12.3171 0.0136719 13.61 0.0136719 15.0782V18.8282H5.60715L8.52014 15.9389V15.0782C8.52014 13.61 7.76382 12.3171 6.61677 11.5615C5.94306 12.0062 5.13499 12.2657 4.26691 12.2657C3.39882 12.2657 2.59075 12.0062 1.91704 11.5615Z"/></g><defs><clipPath id="clip0_846_217"><rect width="24.196" height="24" fill="#fff" transform="translate(0.0136719 0.5)"/></clipPath></defs></svg>