<?xml version="1.0" encoding="UTF-8" standalone="no"?>
<svg xmlns="http://www.w3.org/2000/svg" xmlns:xlink="http://www.w3.org/1999/xlink" xmlns:serif="http://www.serif.com/" width="100%" height="100%" viewBox="0 0 2800 2000" version="1.1" xml:space="preserve" style="fill-rule:evenodd;clip-rule:evenodd;stroke-linejoin:round;stroke-miterlimit:2;">
    <g>
        <path d="M1282.2,49.921C1618.65,31.058 1926.53,130.94 2132.76,301.843C2460.28,418.997 2692.4,661.034 2712.94,952.159C2743.42,1384.76 2295.25,1761.9 1711.88,1794.51C1551.94,1803.49 1398.51,1785.54 1259.37,1745.99C1251.97,1746.56 1244.57,1747.01 1237.05,1747.47C653.682,1780.08 156.149,1455.89 125.54,1023.41C108.195,776.37 246.958,547.401 477.677,390.362C658.656,200.142 948.171,68.557 1282.2,49.921Z" style="fill:rgb(213,240,255);fill-rule:nonzero;"></path>
        <path d="M1773.38,196.945L1751.04,251.732L1840.43,199.351L1791.5,177.214L1773.38,196.945Z" style="fill:rgb(75,118,186);"></path>
        <path d="M2061.72,130.689L1730,100.764L1814.81,264.261L2061.72,130.689Z" style="fill:rgb(223,228,243);"></path>
        <path d="M1777.39,192.025C1764.29,214.416 1763.85,229.426 1750.75,251.818C1749.89,237.131 1754.49,192.817 1760.09,159.238L2039.52,134.485L1777.39,192.025Z" style="fill:rgb(141,175,220);"></path>
        <path d="M1718.9,279.434L1715.8,276.011L1716.42,275.571L1717.74,274.294L1719.17,273.173L1720.47,272.028L1721.92,270.774L1722.88,269.982L1725.81,273.648L1724.87,274.307L1723.44,275.428L1722.14,276.573L1720.69,277.827L1719.39,278.971L1718.9,279.434ZM1702.56,295.225L1699.28,292.045L1700.31,290.855L1701.63,289.577L1702.84,288.143L1704.16,286.866L1705.61,285.611L1705.66,285.345L1708.92,288.659L1708.76,288.769L1707.44,290.046L1706.1,291.456L1704.78,292.734L1703.59,294.035L1702.56,295.225ZM1687.52,312.205L1684.06,309.268L1684.93,308.187L1686.17,306.62L1687.38,305.186L1688.61,303.619L1689.96,302.208L1693.39,305.279L1692.18,306.713L1690.84,308.123L1688.42,310.991L1687.52,312.205ZM1673.92,330.396L1670.27,327.701L1670.65,327.082L1671.76,325.492L1672.88,323.769L1674.11,322.202L1675.22,320.612L1675.55,320.259L1679.19,322.954L1678.99,323.33L1677.76,324.897L1676.66,326.487L1675.55,328.077L1674.45,329.667L1673.92,330.396ZM1661.79,349.531L1657.94,347.212L1658.73,345.842L1659.75,343.962L1660.87,342.239L1661.84,340.625L1662.63,339.255L1666.45,341.706L1665.69,342.944L1664.69,344.69L1663.7,346.437L1662.73,348.05L1661.79,349.531ZM1651.28,369.634L1647.1,367.668L1647.28,367.425L1648.16,365.522L1649.02,363.753L1650.03,361.873L1650.89,360.103L1651.29,359.351L1655.32,361.427L1654.91,362.179L1654.06,363.949L1653.2,365.718L1652.34,367.488L1651.33,369.368L1651.28,369.634ZM1642.43,390.439L1638.18,388.872L1638.43,388.23L1639.17,386.304L1639.92,384.378L1641.42,380.526L1641.47,380.259L1645.69,381.959L1645.65,382.225L1644.9,384.152L1644.15,386.078L1643.42,387.871L1642.68,389.797L1642.43,390.439ZM1635.37,411.969L1631.05,410.801L1631.37,409.76L1631.85,407.788L1632.49,405.705L1633.1,403.756L1633.56,401.916L1637.97,403.373L1637.4,405.056L1636.79,407.006L1636.3,408.978L1635.69,410.928L1635.37,411.969ZM1630.53,434.161L1626,433.369L1626.26,431.906L1626.61,429.91L1626.98,427.781L1627.46,425.808L1627.74,424.211L1632.22,425.269L1631.83,426.71L1631.48,428.705L1631.13,430.701L1630.78,432.698L1630.53,434.161ZM1627.84,456.593L1623.24,456.2L1623.39,454.58L1623.47,452.538L1623.71,450.385L1623.93,448.366L1624.03,447.012L1628.6,447.538L1628.5,448.891L1628.28,450.911L1628.06,452.93L1627.85,454.949L1627.84,456.593ZM1627.74,479.067L1623.17,479.364L1622.98,477.274L1622.93,475.209L1622.88,473.143L1622.81,471.21L1622.73,470.099L1627.39,470.092L1627.36,471.047L1627.44,472.98L1627.49,475.046L1627.56,476.978L1627.74,479.067ZM1631.25,501.349L1626.82,502.357L1626.26,500.065L1625.86,497.663L1625.33,495.238L1624.99,493.259L1629.52,492.407L1629.86,494.386L1630.27,496.788L1630.82,499.08L1631.25,501.349ZM1637.74,523.055L1633.37,524.485L1632.72,522.726L1631.81,520.098L1631.03,517.493L1630.51,515.757L1634.85,514.459L1635.37,516.195L1636.17,518.667L1637.11,521.162L1637.74,523.055ZM1646.45,543.78L1642.4,545.812L1641.5,543.873L1640.19,541.175L1639.01,538.5L1638.51,537.453L1642.68,535.576L1643.16,536.757L1644.36,539.299L1645.54,541.973L1646.45,543.78ZM1657.38,563.656L1653.54,566.001L1653.21,565.532L1652.35,564.148L1651.5,562.764L1649.9,560.153L1648.76,558.034L1652.71,555.845L1653.87,557.831L1655.47,560.442L1656.19,561.803L1657.05,563.187L1657.38,563.656ZM1670.17,582.215L1666.53,585.006L1665.98,584.224L1664.97,582.95L1663.96,581.676L1663.11,580.292L1662.09,579.018L1661.11,577.611L1664.86,574.976L1665.85,576.383L1666.72,577.634L1667.74,578.908L1668.61,580.159L1669.6,581.566L1670.17,582.215ZM1684.85,599.456L1681.56,602.583L1681.43,602.56L1680.28,601.262L1679,599.942L1677.86,598.645L1676.71,597.347L1675.57,596.05L1675.35,595.737L1678.75,592.766L1679.1,593.102L1680.11,594.376L1681.26,595.674L1682.43,596.838L1683.57,598.135L1684.72,599.433L1684.85,599.456ZM1701.16,615.2L1698.22,618.663L1698.09,618.64L1696.79,617.453L1695.35,616.242L1694.05,615.054L1692.77,613.734L1691.47,612.546L1691.36,612.39L1694.54,609.106L1694.52,609.239L1695.82,610.427L1697.12,611.614L1698.42,612.802L1699.86,614.013L1701.16,615.2ZM1719.01,629.158L1716.29,632.934L1715.32,632.216L1713.27,630.622L1711.19,629.162L1709.63,627.928L1708.9,627.389L1711.73,623.769L1712.45,624.308L1713.89,625.519L1715.96,626.979L1717.91,628.417L1719.01,629.158ZM1758.27,651.662L1756.33,655.71L1754.03,654.759L1751.88,653.698L1749.6,652.613L1747.94,651.911L1750.04,647.753L1751.55,648.565L1753.69,649.626L1755.99,650.577L1758.16,651.505L1758.27,651.662ZM1779.4,659.472L1778.07,663.903L1776.63,663.514L1774.31,662.696L1771.98,661.877L1769.79,661.082L1769.26,660.989L1770.85,656.605L1771.36,656.831L1773.55,657.626L1775.74,658.421L1777.96,659.083L1779.4,659.472ZM1801.34,664.957L1800.41,669.458L1799.62,669.318L1797.24,668.766L1794.98,668.37L1792.61,667.818L1791.41,667.608L1792.47,663.131L1793.67,663.34L1795.91,663.869L1798.15,664.398L1800.41,664.794L1801.34,664.957ZM1823.77,667.647L1823.53,672.132L1822.98,672.171L1820.54,672.019L1818.25,671.756L1815.94,671.626L1814.19,671.457L1814.72,666.886L1816.34,667.032L1818.62,667.295L1820.93,667.424L1823.24,667.554L1823.77,667.647ZM1846.32,667.34L1846.63,671.785L1846.35,671.871L1843.99,672.008L1841.64,672.144L1839.28,672.281L1837.35,672.354L1837.32,667.823L1839.12,667.727L1841.47,667.59L1843.69,667.43L1846.05,667.294L1846.32,667.34ZM1868.57,663.966L1869.56,668.527L1867.42,668.976L1865.15,669.402L1862.75,669.805L1860.48,670.231L1859.76,665.716L1862.03,665.291L1864.3,664.865L1866.57,664.439L1868.57,663.966ZM1890.23,657.745L1891.8,662.133L1890.64,662.479L1888.3,663.304L1885.96,664.129L1883.65,664.821L1882.93,664.971L1881.64,660.63L1882.35,660.48L1884.66,659.788L1886.87,658.939L1889.05,658.224L1890.23,657.745ZM1910.98,648.895L1913.01,652.954L1911.21,653.872L1908.96,654.987L1906.57,656.078L1904.63,656.973L1902.78,652.671L1904.69,651.909L1906.95,650.795L1909.17,649.813L1910.98,648.895ZM1930.55,637.371L1933.03,641.233L1931.18,642.418L1929.01,643.822L1926.85,645.226L1925.17,646.167L1922.83,642.328L1924.37,641.364L1926.53,639.96L1928.7,638.556L1930.55,637.371ZM1948.54,623.924L1951.49,627.457L1950.68,628.139L1948.6,629.833L1946.39,631.503L1944.31,633.196L1941.52,629.554L1943.57,627.993L1945.65,626.3L1947.73,624.606L1948.54,623.924ZM1965.21,608.601L1968.49,611.782L1967.33,612.949L1965.33,614.932L1963.34,616.915L1961.86,618.302L1958.76,614.879L1960.08,613.602L1962.21,611.642L1964.2,609.659L1965.21,608.601ZM1980.49,591.802L1983.95,594.739L1983.44,595.334L1981.51,597.74L1979.47,599.988L1977.94,601.642L1974.5,598.572L1976.03,596.918L1977.93,594.646L1979.97,592.397L1980.49,591.802ZM1994.07,573.744L1997.87,576.329L1997.13,577.433L1996.03,579.023L1994.93,580.614L1993.11,583.175L1992.57,583.904L1988.95,581.076L1989.46,580.481L1991.28,577.919L1992.36,576.462L1993.31,574.982L1994.07,573.744ZM2003.49,553.588L2007.77,555.021L2007.4,556.329L2006.83,558.012L2006.27,559.695L2005.56,561.356L2004.99,563.039L2004.57,563.924L2000.38,561.958L2000.79,561.206L2001.34,559.656L2002.01,558.129L2002.56,556.579L2002.97,555.005L2003.49,553.588ZM2007.05,531.719L2011.53,531.955L2011.52,532.776L2011.49,534.553L2011.34,536.173L2011.17,537.926L2011.03,539.546L2010.72,541.276L2006.31,540.641L2006.45,539.021L2006.6,537.4L2006.75,535.78L2006.89,534.16L2006.88,532.65L2007.05,531.719ZM2005.32,509.473L2009.83,508.755L2009.89,509.177L2010.15,510.867L2010.4,512.557L2010.65,514.247L2010.91,515.937L2011.02,517.604L2011.11,517.893L2006.51,518.322L2006.42,518.033L2006.3,516.366L2006.16,514.833L2005.91,513.143L2005.63,511.586L2005.38,509.896L2005.32,509.473ZM1999.52,487.751L2003.9,486.187L2003.88,486.32L2004.42,487.924L2004.97,489.527L2005.51,491.13L2005.92,492.71L2006.46,494.314L2006.61,495.026L2002.27,496.323L2002.12,495.611L2001.58,494.008L2001.14,492.561L2000.6,490.958L2000.06,489.354L1999.63,487.907L1999.52,487.751ZM1990.82,466.893L1994.88,464.86L1994.97,465.15L1995.69,466.51L1996.39,468.004L1997.09,469.498L1997.79,470.991L1998.49,472.485L1998.74,473.353L1994.6,475.096L1994.18,474.338L1993.62,472.868L1992.92,471.374L1992.2,470.014L1991.63,468.543L1990.93,467.049L1990.82,466.893ZM1979.75,447.127L1983.58,444.781L1983.83,444.961L1985.32,447.416L1986.78,450.004L1988.38,452.615L1984.41,454.938L1982.95,452.349L1981.48,449.761L1979.86,447.283L1979.75,447.127ZM1966.81,428.545L1970.46,425.753L1971.66,427.473L1973.11,429.373L1974.7,431.295L1976.02,433.172L1972.26,435.806L1970.92,434.063L1969.5,432.031L1968.05,430.131L1966.81,428.545ZM1951.69,412.321L1954.52,408.702L1954.87,409.038L1955.6,409.576L1956.19,410.092L1956.92,410.631L1957.76,411.326L1958.57,412.155L1959.5,413.139L1960.42,414.124L1961.48,415.132L1958.19,418.259L1957.13,417.251L1956.21,416.266L1955.39,415.438L1954.69,414.766L1953.98,414.094L1953.36,413.712L1952.77,413.196L1952.04,412.657L1951.69,412.321ZM1932.09,402.036L1933.79,397.808L1934.06,397.854L1935.21,398.33L1936.36,398.806L1937.38,399.258L1938.53,399.734L1939.55,400.186L1940.57,400.638L1941.56,401.224L1942.34,401.497L1940.24,405.655L1939.62,405.273L1938.73,404.843L1937.72,404.391L1936.7,403.939L1935.55,403.463L1934.53,403.01L1933.51,402.558L1932.36,402.083L1932.09,402.036ZM1910.49,395.377L1911.55,390.899L1912.59,391.218L1915.36,391.84L1917.98,392.572L1920.59,393.304L1919.27,397.735L1916.79,397.027L1914.17,396.295L1911.53,395.696L1910.49,395.377ZM1888.27,391.488L1888.8,386.918L1889.46,387.034L1891.08,387.181L1892.55,387.437L1895.5,387.816L1898.03,388.258L1897.23,392.782L1894.84,392.363L1891.89,391.984L1890.42,391.728L1888.94,391.605L1888.27,391.488ZM1865.74,390.152L1865.71,385.621L1866.4,385.604L1867.91,385.595L1869.55,385.608L1871.06,385.598L1872.68,385.744L1874.19,385.734L1875.01,385.741L1874.76,390.358L1873.93,390.352L1872.45,390.228L1870.94,390.238L1869.45,390.115L1866.43,390.135L1865.74,390.152ZM1843.14,391.547L1842.56,387.056L1842.85,386.969L1844.38,386.826L1846.07,386.573L1847.6,386.43L1849.14,386.287L1850.67,386.144L1851.91,386.087L1852.21,390.665L1851.1,390.745L1849.57,390.888L1848.03,391.031L1846.5,391.174L1844.97,391.317L1843.43,391.46L1843.14,391.547ZM1821.21,396.211L1819.91,391.87L1819.93,391.737L1821.51,391.328L1822.96,390.895L1824.41,390.463L1825.96,390.187L1827.41,389.754L1828.97,389.478L1829.98,393.906L1828.55,394.205L1827.1,394.638L1825.55,394.914L1824.1,395.346L1822.65,395.779L1821.21,396.211ZM1800.53,404.662L1798.34,400.713L1798.65,400.493L1800.01,399.772L1801.35,399.183L1802.71,398.461L1804.07,397.739L1805.54,397.173L1806.75,396.561L1808.6,400.862L1807.42,401.342L1806.08,401.93L1804.74,402.519L1803.38,403.241L1802.18,403.853L1800.82,404.575L1800.53,404.662ZM1782.21,417.639L1779.4,414.13L1780.38,413.205L1782.28,411.755L1784.05,410.281L1785.82,408.807L1786.6,408.258L1789.36,412.034L1788.61,412.45L1786.84,413.924L1785.1,415.264L1783.33,416.738L1782.21,417.639ZM1765.54,432.962L1762.42,429.672L1762.75,429.32L1764.43,427.557L1766.25,425.817L1767.9,424.187L1769.02,423.285L1772.01,426.552L1771.16,427.5L1769.37,429.107L1767.69,430.87L1766.04,432.5L1765.54,432.962ZM1750.64,449.965L1747.04,447.005L1747.89,446.057L1749.49,444.004L1751.06,442.085L1752.76,440.188L1752.94,439.945L1756.4,442.883L1756.22,443.126L1754.65,445.045L1753.08,446.965L1751.51,448.884L1750.64,449.965ZM1737.81,468.428L1733.83,466.087L1734.59,464.849L1736.08,462.64L1737.43,460.408L1738.89,458.332L1738.91,458.199L1742.69,460.917L1741.23,462.993L1739.9,465.092L1738.57,467.191L1737.81,468.428ZM1727.32,488.399L1723.11,486.566L1723.54,485.681L1725.76,480.857L1726.98,478.602L1727.18,478.226L1731.2,480.302L1731.02,480.544L1729.92,482.956L1728.83,485.235L1727.73,487.647L1727.32,488.399ZM1719.62,509.679L1715.32,508.379L1715.62,507.47L1715.98,506.163L1716.37,504.723L1716.74,503.415L1717.24,502.131L1717.6,500.824L1718.1,499.54L1722.35,501.106L1722.01,502.281L1721.51,503.565L1721.15,504.872L1720.78,506.18L1720.28,507.464L1719.94,508.638L1719.62,509.679ZM1715.09,531.652L1710.52,531.126L1710.54,530.993L1710.8,529.529L1710.92,528.042L1711.15,526.712L1711.67,523.784L1711.9,522.454L1711.99,521.921L1716.49,522.846L1716.42,523.245L1716.17,524.709L1715.93,526.04L1715.7,527.37L1715.44,528.834L1715.21,530.164L1715.11,531.519L1715.09,531.652ZM1713.49,554.136L1708.96,554.167L1708.94,553.478L1708.97,551.701L1708.97,550.191L1708.95,548.681L1709.08,547.194L1709.07,545.684L1709.21,544.885L1713.69,545.121L1713.71,545.81L1713.59,547.297L1713.6,548.807L1713.47,550.294L1713.48,551.805L1713.45,553.581L1713.49,554.136ZM1714.59,576.821L1709.99,577.25L1709.86,576.405L1709.79,574.472L1709.58,572.516L1709.51,570.583L1709.3,568.627L1709.29,567.939L1713.84,567.776L1713.88,568.331L1713.96,570.264L1714.16,572.22L1714.26,574.02L1714.46,575.976L1714.59,576.821ZM1717.65,599.299L1713.14,600.017L1712.78,598.171L1712.46,596.059L1712.12,594.079L1711.78,592.1L1711.7,590.989L1716.22,590.27L1716.29,591.381L1716.63,593.361L1716.97,595.34L1717.31,597.319L1717.65,599.299ZM1722.56,621.414L1718.11,622.555L1718,622.399L1717.53,620.396L1717.08,618.26L1716.47,616.234L1716,614.232L1715.83,613.653L1720.39,612.668L1720.56,613.247L1720.9,615.226L1721.51,617.252L1722.45,621.258L1722.56,621.414ZM1728.89,643.23L1724.53,644.66L1723.9,642.767L1723.29,640.741L1722.69,638.715L1722.08,636.69L1721.82,635.821L1726.16,634.524L1726.42,635.392L1727.03,637.418L1727.66,639.311L1728.03,640.335L1730.3,636.756L1732.4,638.083L1734.52,639.278L1736.62,640.605L1737.99,641.393L1735.78,645.395L1734.28,644.583L1732.18,643.256L1730.08,641.929L1728.09,640.758L1728.26,641.337L1728.89,643.23ZM1736.69,664.48L1732.55,666.223L1732.05,665.175L1731.28,663.259L1730.41,661.187L1729.67,659.137L1729.11,657.667L1733.5,656.103L1733.93,657.551L1734.69,659.467L1735.56,661.539L1736.3,663.588L1736.69,664.48ZM1745.94,685.297L1741.75,687.307L1740.86,685.368L1739.96,683.428L1738.96,681.332L1738.06,679.393L1737.86,678.947L1742.03,677.071L1742.23,677.517L1743.12,679.456L1744.02,681.396L1745.02,683.491L1745.94,685.297ZM1756.39,705.503L1752.45,707.692L1752.01,707.067L1750.98,705.104L1749.82,703.118L1748.79,701.155L1747.96,699.639L1752.04,697.473L1752.87,698.99L1753.9,700.952L1754.93,702.915L1755.98,704.745L1756.39,705.503ZM1768.07,724.963L1764.35,727.465L1763.36,726.058L1762.17,724.205L1760.99,722.352L1759.83,720.366L1759.41,719.608L1763.25,717.263L1763.8,718.044L1764.85,719.874L1766.04,721.727L1767.22,723.58L1768.07,724.963ZM1781.16,743.436L1777.52,746.227L1777.3,745.914L1775.96,744.171L1774.62,742.428L1773.41,740.708L1772.09,738.832L1775.85,736.197L1777.05,737.917L1778.37,739.793L1779.58,741.513L1780.92,743.256L1781.16,743.436ZM1795.5,761.03L1792.08,764.134L1791.04,762.993L1789.7,761.25L1788.21,759.616L1786.84,758.006L1786.18,757.068L1789.69,754.254L1790.37,755.059L1791.74,756.669L1793.1,758.279L1794.6,759.912L1795.5,761.03ZM1811.29,777.37L1808.11,780.653L1807.52,780.137L1802.96,775.637L1801.57,774.16L1804.86,771.033L1806.14,772.353L1807.66,773.854L1809.18,775.354L1810.7,776.854L1811.29,777.37ZM1828.45,792.166L1825.62,795.785L1825.25,795.582L1823.92,794.528L1822.71,793.63L1821.52,792.599L1820.2,791.544L1818.65,790.177L1818.41,789.997L1821.35,786.534L1821.59,786.714L1823.13,788.081L1824.35,788.979L1825.54,790.01L1826.75,790.908L1828.08,791.963L1828.45,792.166ZM1847.03,805.152L1844.57,808.975L1843.95,808.592L1842.47,807.648L1840.86,806.68L1839.4,805.602L1837.79,804.634L1836.82,803.915L1839.4,800.116L1840.38,800.835L1841.86,801.779L1843.31,802.857L1844.93,803.825L1846.41,804.77L1847.03,805.152ZM1866.77,816.15L1864.67,820.308L1864.56,820.151L1862.79,819.294L1860.91,818.279L1859.14,817.421L1857.39,816.43L1856.51,816L1858.72,811.998L1859.6,812.427L1861.35,813.419L1864.89,815.135L1866.64,816.126L1866.77,816.15ZM1887.5,825.4L1885.67,829.605L1883.88,828.88L1881.95,828.131L1879.92,827.227L1877.86,826.455L1877.24,826.073L1879.05,822.001L1879.69,822.25L1881.75,823.022L1883.65,823.904L1885.71,824.675L1887.5,825.4ZM1908.83,832.834L1907.51,837.266L1907.37,837.242L1905.16,836.58L1902.97,835.786L1900.75,835.124L1898.67,834.485L1900.26,830.1L1902.18,830.849L1904.27,831.487L1906.48,832.149L1908.7,832.811L1908.83,832.834ZM1930.75,838.452L1929.83,842.954L1927.99,842.494L1925.59,842.075L1923.35,841.547L1920.98,840.994L1920.85,840.971L1921.91,836.493L1922.04,836.517L1924.28,837.046L1929.02,838.15L1930.75,838.452ZM1953.15,842.098L1952.63,846.669L1952.49,846.645L1949.94,846.336L1947.39,846.027L1945,845.608L1943.51,845.484L1944.17,840.937L1945.65,841.06L1948.05,841.479L1950.47,841.765L1953.02,842.075L1953.15,842.098ZM1975.77,843.724L1975.64,848.365L1973.05,848.321L1970.34,848.122L1967.76,847.946L1966.39,847.979L1966.65,843.361L1968,843.461L1970.57,843.637L1973.17,843.681L1975.77,843.724ZM1998.45,843.44L1998.61,847.994L1997.08,848.138L1994.32,848.204L1991.7,848.294L1989.48,848.454L1989.34,843.767L1991.54,843.74L1994.16,843.65L1996.91,843.583L1998.45,843.44ZM2020.94,841.068L2021.66,845.582L2019.28,845.851L2016.46,846.317L2013.66,846.65L2012.39,846.839L2011.96,842.239L2013.23,842.049L2015.9,841.693L2018.7,841.36L2020.94,841.068ZM2043.23,836.739L2044.24,841.167L2042.1,841.616L2039.23,842.348L2036.38,842.947L2035.25,843.159L2034.4,838.622L2035.4,838.386L2038.25,837.787L2041.09,837.188L2043.23,836.739ZM2065.02,830.541L2066.45,834.905L2065.59,835.165L2062.56,836.007L2059.64,837.004L2057.61,837.61L2056.34,833.136L2058.34,832.663L2061.26,831.665L2064.15,830.8L2065.02,830.541ZM2086.19,822.45L2088.04,826.751L2086.41,827.426L2083.45,828.69L2080.38,829.798L2079.48,830.191L2077.76,825.913L2078.79,825.544L2081.73,824.412L2084.69,823.148L2086.19,822.45ZM2106.78,812.888L2108.82,816.947L2107.59,817.692L2104.58,819.222L2101.59,820.62L2100.54,821.122L2098.67,816.954L2099.56,816.561L2102.57,815.031L2105.56,813.633L2106.78,812.888ZM1736.58,265.385L1733.95,261.632L1734.44,261.17L1735.84,260.182L1737.25,259.194L1738.66,258.206L1740.04,257.351L1741.58,256.386L1744.06,260.248L1742.68,261.103L1741.27,262.091L1739.89,262.946L1738.48,263.934L1737.07,264.922L1736.58,265.385Z" style="fill:rgb(141,175,220);fill-rule:nonzero;"></path>
        <path d="M1015.04,995.69L1002.65,996.041C994.451,706.853 897.883,327.833 700.639,132.975L709.351,124.156C802.184,215.866 880.407,356.37 935.563,530.478C982.512,678.679 1010.74,843.894 1015.04,995.69Z" style="fill:rgb(9,169,142);fill-rule:nonzero;"></path>
        <path d="M1005.03,1000.6C798.837,797.746 466.644,591.309 189.307,587.408L189.481,575.014C319.966,576.849 473.718,623.988 634.116,711.332C770.685,785.7 905.498,885.294 1013.72,991.768L1005.03,1000.6Z" style="fill:rgb(9,169,142);fill-rule:nonzero;"></path>
        <path d="M1014.53,993.458L1003.2,998.481C885.974,734.018 652.9,419.92 396.453,314.37L401.171,302.907C521.87,352.585 647.539,452.943 764.595,593.13C864.233,712.459 952.997,854.632 1014.53,993.458Z" style="fill:rgb(9,169,142);fill-rule:nonzero;"></path>
        <path d="M730.316,155.186C701.811,151.153 679.988,155.633 653.15,139.727C626.34,123.859 605.774,83.831 618.334,69.207C627.762,54.925 673.113,62.1 695.473,84.627C717.832,107.153 718.714,126.741 730.316,155.186Z" style="fill:rgb(22,183,158);"></path>
        <path d="M800.062,248.931C782.91,268.568 775.437,287.323 750.105,299.763C724.773,312.202 684.199,307.925 679.348,291.149C673.207,276.94 701.112,246.143 729.306,240.318C757.489,234.558 772.778,243.606 800.062,248.931Z" style="fill:rgb(22,183,158);"></path>
        <path d="M800.897,248.152C826.762,244.828 846.469,249.106 870.951,235.007C895.405,220.871 914.446,184.83 903.236,171.431C894.807,158.411 853.697,164.43 833.21,184.614C812.658,204.787 811.673,222.52 800.897,248.152Z" style="fill:rgb(22,183,158);"></path>
        <path d="M861.258,357.606C844.116,377.177 836.643,395.932 811.3,408.437C785.969,420.877 745.394,416.599 740.544,399.824C734.413,385.549 762.346,354.79 790.501,348.993C818.723,343.205 833.974,352.281 861.258,357.606Z" style="fill:rgb(22,183,158);"></path>
        <path d="M862.065,356.788C887.93,353.464 907.675,357.714 932.119,343.644C956.601,329.546 975.679,293.477 964.432,280.106C956.041,267.058 914.892,273.104 894.378,293.25C873.891,313.434 872.906,331.167 862.065,356.788Z" style="fill:rgb(22,183,158);"></path>
        <path d="M909.492,471.81C891.225,490.389 882.645,508.662 856.601,519.635C830.568,530.542 790.309,523.88 786.484,506.829C781.18,492.247 810.907,463.163 839.364,459.071C867.859,454.951 882.528,464.914 909.492,471.81Z" style="fill:rgb(22,183,158);"></path>
        <path d="M910.355,471.07C936.344,469.287 955.833,474.714 981.054,462.121C1006.29,449.462 1027.47,414.61 1017.07,400.564C1009.47,387.067 968.038,390.634 946.364,409.579C924.662,428.486 922.677,446.126 910.355,471.07Z" style="fill:rgb(22,183,158);"></path>
        <path d="M947.876,595.764C928.299,613.017 918.475,630.617 891.728,639.65C864.943,648.712 825.309,639.207 822.706,621.914C818.438,606.99 850.149,580.085 878.854,578.028C907.559,575.971 921.521,586.97 947.876,595.764Z" style="fill:rgb(22,183,158);"></path>
        <path d="M948.794,595.1C974.855,595.189 993.858,601.959 1019.97,591.167C1046.05,580.402 1069.65,547.122 1060.24,532.422C1053.64,518.375 1012.04,518.973 989.102,536.328C966.133,553.645 962.857,571.112 948.794,595.1Z" style="fill:rgb(22,183,158);"></path>
        <path d="M975.531,710.286C953.729,724.544 941.54,740.648 913.782,745.867C886.024,751.086 848.119,736.075 847.909,718.624C845.811,703.238 880.955,681.076 909.657,683.044C938.359,685.011 950.674,697.843 975.531,710.286Z" style="fill:rgb(22,183,158);"></path>
        <path d="M976.532,709.737C1002.35,713.439 1020.22,722.834 1047.56,715.823C1074.87,708.773 1102.92,679.15 1095.67,663.24C1091.07,648.434 1049.84,643.238 1024.68,657.126C999.509,671.08 993.797,687.919 976.532,709.737Z" style="fill:rgb(22,183,158);"></path>
        <path d="M226.093,582.872C202.791,599.73 190.111,618.055 159.779,625.194C129.446,632.334 86.849,617.687 85.772,598.473C82.689,581.644 120.35,555.388 152.086,556.151C183.861,556.886 198.024,570.421 226.093,582.872Z" style="fill:rgb(22,183,158);"></path>
        <path d="M341.365,602.179C342.571,628.177 350.184,646.917 340.518,673.437C330.918,699.967 298.663,724.994 283.529,716.241C269.274,710.234 268.061,668.677 284.376,644.983C300.691,621.288 317.982,617.231 341.365,602.179Z" style="fill:rgb(22,183,158);"></path>
        <path d="M341.414,601.036C357.727,580.724 374.923,570.09 382.785,543.01C390.685,515.903 379.457,476.696 362.07,474.82C346.99,471.216 321.496,504.058 320.671,532.808C319.874,561.596 331.44,575.086 341.414,601.036Z" style="fill:rgb(22,183,158);"></path>
        <path d="M460.735,638.106C461.969,664.142 469.554,682.844 459.954,709.375C450.316,735.933 418.099,760.931 402.965,752.179C388.671,746.199 387.459,704.643 403.774,680.948C420.089,657.254 437.379,653.196 460.735,638.106Z" style="fill:rgb(22,183,158);"></path>
        <path d="M460.783,636.964C477.163,616.662 494.321,606.056 502.221,578.948C510.083,551.868 498.827,512.623 481.468,510.785C466.387,507.182 440.894,540.023 440.069,568.773C439.244,597.523 450.849,610.985 460.783,636.964Z" style="fill:rgb(22,183,158);"></path>
        <path d="M574.695,687.099C574.37,713.156 580.842,732.254 569.647,758.19C558.451,784.127 524.822,807.174 510.232,797.562C496.312,790.729 497.575,749.13 515.28,726.47C532.957,703.772 550.485,700.767 574.695,687.099Z" style="fill:rgb(22,183,158);"></path>
        <path d="M574.781,685.929C592.314,666.658 610.087,657.063 619.556,630.512C629.035,603.894 620.103,564.076 602.875,561.21C588.036,556.732 560.633,587.982 558.128,616.665C555.595,645.31 566.386,659.42 574.781,685.929Z" style="fill:rgb(22,183,158);"></path>
        <path d="M688.2,749.885C686.024,775.882 691.149,795.373 678.163,820.447C665.112,845.511 629.948,866.113 616.065,855.465C602.672,847.668 606.907,806.309 626.167,784.913C645.39,763.545 663.123,761.791 688.2,749.885Z" style="fill:rgb(22,183,158);"></path>
        <path d="M688.445,748.775C707.298,730.763 725.672,722.483 737.055,696.645C748.373,670.796 742.331,630.46 725.342,626.314C710.87,620.812 681.32,650.06 676.732,678.444C672.211,706.837 681.93,721.722 688.445,748.775Z" style="fill:rgb(22,183,158);"></path>
        <path d="M787.468,813.296C781.665,838.711 783.994,858.768 767.625,881.743C751.19,904.708 713.469,920.166 701.261,907.722C689.07,898.123 699.07,857.723 721.104,839.275C743.177,820.8 760.914,821.549 787.468,813.296Z" style="fill:rgb(22,183,158);"></path>
        <path d="M787.845,812.206C809.021,797.003 828.416,791.423 843.263,767.392C858.11,743.36 857.819,702.594 841.541,696.127C827.963,688.639 794.626,713.457 786.123,740.942C777.621,768.426 785.185,784.521 787.845,812.206Z" style="fill:rgb(22,183,158);"></path>
        <path d="M432.353,323.658C404.458,330.783 385.966,343.17 355.135,338.663C324.304,334.156 290.073,304.888 296.149,286.62C299.489,269.806 344.135,259.247 373.367,271.615C402.637,283.954 410.832,301.807 432.353,323.658Z" style="fill:rgb(79,189,157);"></path>
        <path d="M532.486,383.995C524.031,408.646 524.242,428.836 505.496,449.976C486.789,471.089 447.616,482.525 436.79,468.85C425.678,458.003 439.831,418.912 463.713,402.857C487.623,386.841 505.168,389.419 532.486,383.995Z" style="fill:rgb(79,189,157);"></path>
        <path d="M532.929,382.916C555.585,370.081 575.465,366.54 592.749,344.185C610.022,321.896 613.998,281.307 598.56,273.182C585.819,264.272 550.022,285.45 538.714,311.875C527.395,338.366 533.228,355.13 532.929,382.916Z" style="fill:rgb(79,189,157);"></path>
        <path d="M630.268,461.304C621.842,485.993 622.052,506.184 603.344,527.296C584.598,548.436 545.464,559.845 534.599,546.197C523.526,535.323 537.678,496.231 561.561,480.177C585.444,464.123 603.016,466.739 630.268,461.304Z" style="fill:rgb(79,189,157);"></path>
        <path d="M630.739,460.263C653.433,447.4 673.313,443.859 690.558,421.532C707.87,399.215 711.846,358.626 696.343,350.491C683.629,341.619 647.87,362.769 636.523,389.222C625.215,415.648 631.038,432.477 630.739,460.263Z" style="fill:rgb(79,189,157);"></path>
        <path d="M718.24,548.74C708.351,572.857 707.381,593.027 687.398,613.022C667.453,632.988 627.707,642.101 617.695,627.778C607.265,616.263 623.734,578.118 648.499,563.525C673.301,548.903 690.677,552.536 718.24,548.74Z" style="fill:rgb(79,189,157);"></path>
        <path d="M718.739,547.738C742.128,536.238 762.196,533.844 780.754,512.606C799.351,491.341 805.712,451.067 790.763,442.006C778.572,432.407 741.603,451.401 728.748,477.138C715.855,502.903 720.69,519.981 718.739,547.738Z" style="fill:rgb(79,189,157);"></path>
        <path d="M800.762,648.865C789.166,672.234 786.762,692.276 765.425,710.802C744.127,729.3 703.797,735.511 694.835,720.545C685.258,708.355 704.37,671.447 730.133,658.636C755.924,645.864 773.005,650.702 800.762,648.865Z" style="fill:rgb(79,189,157);"></path>
        <path d="M801.354,647.911C825.489,638.086 845.653,637.196 865.691,617.278C885.757,597.398 894.97,557.683 880.69,547.614C869.279,537.159 831.015,553.476 816.326,578.209C801.664,602.98 805.266,620.367 801.354,647.911Z" style="fill:rgb(79,189,157);"></path>
        <path d="M869.76,744.316C855.013,765.827 849.822,785.32 826.122,800.66C802.422,816 761.614,816.554 754.835,800.417C747.073,787.03 771.177,753.154 798.473,744.073C825.796,735.031 842.024,742.234 869.76,744.316Z" style="fill:rgb(79,189,157);"></path>
        <path d="M870.474,743.45C895.777,737.093 915.865,738.997 938.486,722.165C961.117,705.268 975.846,667.216 963.12,655.265C953.237,643.297 913.083,654.102 895.108,676.549C877.067,698.986 878.179,716.717 870.474,743.45Z" style="fill:rgb(79,189,157);"></path>
        <path d="M1403.59,1952.35C2042.69,1952.35 2563.96,1928.08 2563.96,1898.29C2563.96,1868.49 2042.69,1844.23 1403.59,1844.23C764.381,1844.23 243.11,1868.49 243.11,1898.29C243.11,1928.08 764.381,1952.35 1403.59,1952.35Z" style="fill:rgb(223,230,255);"></path>
        <path d="M591.834,1277.81L604.89,1270.67C615.339,1266.16 631.342,1251.59 636.313,1257.14C639.316,1261.1 625.736,1266.99 625.536,1273.97C631.306,1286.94 670.1,1274.91 674.025,1285.72C680.19,1301.72 668.464,1321.1 651.661,1320.85C642.698,1321.26 620.162,1306.11 597.691,1296.65L591.834,1277.81Z" style="fill:rgb(246,150,104);fill-rule:nonzero;"></path>
        <path d="M452.647,1845.23L481.539,1862.24C507.5,1884.24 564.208,1871.05 555.604,1906.23L419.828,1897C418.915,1890.98 417.888,1874.25 428.217,1862.52L452.647,1845.23Z" style="fill:rgb(21,74,154);"></path>
        <path d="M486.24,1816.95L433.776,1814.41C433.069,1829.09 432.131,1844.02 431.424,1858.7C447.382,1858.9 476.482,1874.97 479.537,1859.28L486.24,1816.95Z" style="fill:rgb(239,173,141);"></path>
        <path d="M367.531,1356.87C405.268,1469.02 427.53,1501.6 442.952,1572.32L420.14,1834.15L496.112,1834.79L521.227,1563.35L497.331,1358.14L389.072,1309.65C368.869,1325.18 387.734,1341.34 367.531,1356.87Z" style="fill:rgb(21,74,154);"></path>
        <path d="M353.989,1842.52L383.579,1859.04C409.755,1880.33 466.194,1866.22 458.312,1901.61L322.381,1894.94C321.239,1889.16 320.212,1872.44 330.057,1860.49L353.989,1842.52Z" style="fill:rgb(75,118,186);"></path>
        <path d="M387.082,1813.55L334.657,1812.17C334.188,1826.85 333.726,1841.76 333.257,1856.43C349.208,1856.4 378.522,1871.77 381.339,1856.09L387.082,1813.55Z" style="fill:rgb(239,173,141);"></path>
        <path d="M389.072,1309.65C372.682,1325.29 356.292,1340.93 339.665,1356.58C329.223,1437.2 369.513,1489.46 384.314,1555.78L324.843,1825.05L397.338,1835.8L462.809,1560.76L444.223,1357.72L389.072,1309.65Z" style="fill:rgb(75,118,186);"></path>
        <path d="M446.196,1106.55L370.29,1064.48C371.996,1116.33 358.57,1193.08 375.638,1219.77C387.659,1237.78 515.63,1270.29 596.579,1299.17L604.822,1267.49L441.784,1189.53L446.196,1106.55Z" style="fill:rgb(22,183,158);"></path>
        <path d="M416.334,1038.37L399.369,1051C379.076,1056.53 361.659,1055.45 349.49,1069.09L339.665,1356.58L497.331,1358.14C492.033,1240.55 479.151,1247.01 473.853,1129.42C470.482,1070.41 453.681,1059.07 434.647,1052.22L416.334,1038.37Z" style="fill:rgb(22,183,158);"></path>
        <path d="M429.189,1002.13L385.624,1009.55L384.998,1062.86C400.656,1075.63 426.005,1079.02 428.692,1059.39L429.189,1002.13Z" style="fill:rgb(223,146,117);"></path>
        <path d="M346.105,922.82C388.48,915.437 430.625,908.294 472.762,900.918C468.861,941.534 476.051,1008.1 460.582,1022.78C450.983,1034.95 392.811,1039.81 382.699,1029.19C368.576,1019.62 356.566,958.563 346.105,922.82Z" style="fill:rgb(239,173,141);"></path>
        <path d="M472.17,911.875C494.53,889.529 459.812,890.853 452.348,881.081C444.148,863.419 436.682,868.075 369.694,879.956C359.075,882.849 363.179,891.797 359.802,897.72C350.434,902.437 333.294,902.51 331.697,911.869C329.617,921.011 352.6,961.014 362.932,985.591C377.38,968.846 362.592,931.843 379.533,925.725C399.275,917.89 465.433,916.974 472.17,911.875Z" style="fill:rgb(31,26,78);"></path>
        <path d="M415.812,1123.79L450.794,1246.27L394.889,1204.27L415.812,1123.79ZM343.658,1239.16C359.485,1249.84 382.539,1263.08 408.486,1277.39L340.842,1327.22L343.658,1239.16Z" style="fill:rgb(11,174,146);"></path>
        <path d="M2165.81,1171.54C2156.6,1171.13 2147.81,1176.45 2142.9,1159.06C2141.87,1155.17 2135.33,1148.63 2131.03,1146.17C2126.33,1143.51 2120.6,1137.99 2117.94,1144.13C2116.51,1147.4 2135.12,1153.54 2130.42,1163.36C2128.37,1167.65 2102.6,1163.97 2090.73,1159.47C2085.41,1157.63 2075.18,1151.69 2078.66,1165.81C2080.91,1175.43 2098.71,1182.79 2108.73,1186.27C2116.3,1188.72 2132.87,1194.86 2141.06,1193.02C2151.49,1190.77 2165.6,1191.59 2174.81,1195.88C2178.7,1197.72 2186.47,1187.9 2185.24,1180.54C2184.63,1177.27 2177.27,1173.79 2172.76,1172.15C2172.15,1171.95 2170.92,1172.15 2165.81,1171.54Z" style="fill:rgb(237,131,92);"></path>
        <path d="M2153.27,1191.32C2161.25,1191.32 2169.23,1192.76 2175.01,1195.46C2175.92,1195.89 2177.22,1195.54 2178.66,1194.45C2182.28,1191.72 2185.6,1185.51 2184.78,1180.62C2184.28,1177.95 2178.31,1174.67 2172.6,1172.59C2172.43,1172.53 2172.07,1172.52 2171.48,1172.49C2170.49,1172.45 2168.82,1172.37 2165.77,1172C2163.92,1171.92 2162.07,1172.08 2160.27,1172.23C2153.17,1172.82 2146.46,1173.39 2142.45,1159.19C2141.47,1155.47 2135.12,1149.05 2130.8,1146.58C2129.92,1146.08 2128.98,1145.47 2128.08,1144.88C2125.39,1143.13 2122.61,1141.32 2120.6,1141.92C2119.67,1142.2 2118.94,1142.98 2118.37,1144.31C2118,1145.16 2120.29,1146.85 2122.52,1148.49C2127.36,1152.06 2134,1156.96 2130.84,1163.56C2128.5,1168.46 2101.75,1164.15 2090.56,1159.91C2089.89,1159.67 2089.13,1159.37 2088.31,1159.05C2085.15,1157.79 2081.21,1156.22 2079.46,1157.75C2078.2,1158.85 2078.09,1161.52 2079.12,1165.7C2081.29,1174.98 2098.7,1182.29 2108.89,1185.83C2109.75,1186.11 2110.74,1186.44 2111.82,1186.8C2120.06,1189.55 2133.84,1194.16 2140.95,1192.56C2144.84,1191.73 2149.05,1191.32 2153.27,1191.32ZM2175.84,1196.57C2175.4,1196.57 2174.99,1196.48 2174.61,1196.31C2165.95,1192.26 2152.19,1191.1 2141.15,1193.47C2133.79,1195.14 2119.85,1190.47 2111.53,1187.69C2110.45,1187.33 2109.46,1186.99 2108.59,1186.71C2095.91,1182.32 2080.37,1175.14 2078.21,1165.92C2077.07,1161.32 2077.28,1158.41 2078.85,1157.05C2081.03,1155.14 2085.26,1156.83 2088.66,1158.18C2089.46,1158.49 2090.21,1158.79 2090.88,1159.03C2103.18,1163.69 2128.21,1166.89 2130,1163.15C2132.82,1157.25 2126.54,1152.62 2121.96,1149.24C2118.99,1147.05 2116.84,1145.47 2117.51,1143.94C2118.19,1142.37 2119.14,1141.39 2120.33,1141.03C2122.76,1140.29 2125.73,1142.23 2128.59,1144.1C2129.52,1144.71 2130.4,1145.28 2131.26,1145.77C2135.83,1148.37 2142.3,1154.97 2143.35,1158.94C2147.15,1172.39 2153.19,1171.89 2160.2,1171.3C2162.02,1171.14 2163.91,1170.99 2165.83,1171.07L2165.86,1171.07C2168.89,1171.44 2170.54,1171.51 2171.52,1171.56C2172.24,1171.59 2172.6,1171.61 2172.91,1171.71C2174.92,1172.44 2184.92,1176.27 2185.7,1180.45C2186.58,1185.69 2183.06,1192.3 2179.23,1195.2C2178.02,1196.11 2176.86,1196.57 2175.84,1196.57Z" style="fill:rgb(237,131,92);fill-rule:nonzero;"></path>
        <rect x="498.74" y="756.254" width="1626.15" height="1137.64" style="fill:white;"></rect>
        <path d="M499.207,1893.42L2124.43,1893.42L2124.43,756.722L499.207,756.722L499.207,1893.42ZM2125.36,1894.35L498.272,1894.35L498.272,755.786L2125.36,755.786L2125.36,1894.35Z" style="fill:rgb(238,238,238);fill-rule:nonzero;"></path>
        <path d="M806.418,757.482L882.519,757.482L822.784,819.672L746.683,819.672L806.418,757.482Z" style="fill:rgb(234,113,139);"></path>
        <path d="M747.78,819.204L822.585,819.204L881.422,757.949L806.617,757.949L747.78,819.204ZM822.983,820.14L745.585,820.14L806.219,757.014L883.617,757.014L822.983,820.14Z" style="fill:rgb(234,113,139);fill-rule:nonzero;"></path>
        <path d="M976.214,757.482L1052.32,757.482L992.58,819.672L916.479,819.672L976.214,757.482Z" style="fill:rgb(98,203,236);"></path>
        <path d="M917.576,819.204L992.38,819.204L1051.22,757.949L976.414,757.949L917.576,819.204ZM992.78,820.14L915.381,820.14L976.014,757.014L1053.41,757.014L992.78,820.14Z" style="fill:rgb(98,203,236);fill-rule:nonzero;"></path>
        <path d="M1132.71,757.482L1208.81,757.482L1149.08,819.672L1072.98,819.672L1132.71,757.482Z" style="fill:rgb(234,113,139);"></path>
        <path d="M1074.07,819.204L1148.88,819.204L1207.72,757.949L1132.91,757.949L1074.07,819.204ZM1149.28,820.14L1071.88,820.14L1132.51,757.014L1209.91,757.014L1149.28,820.14Z" style="fill:rgb(234,113,139);fill-rule:nonzero;"></path>
        <path d="M1302.51,757.482L1378.61,757.482L1318.87,819.672L1242.77,819.672L1302.51,757.482Z" style="fill:rgb(98,203,236);"></path>
        <path d="M1243.87,819.204L1318.67,819.204L1377.51,757.949L1302.71,757.949L1243.87,819.204ZM1319.07,820.14L1241.68,820.14L1302.31,757.014L1379.71,757.014L1319.07,820.14Z" style="fill:rgb(98,203,236);fill-rule:nonzero;"></path>
        <path d="M1459.21,757.482L1535.11,757.482L1475.37,819.672L1399.48,819.672L1459.21,757.482Z" style="fill:rgb(234,113,139);"></path>
        <path d="M1400.57,819.204L1475.17,819.204L1534.01,757.949L1459.41,757.949L1400.57,819.204ZM1475.57,820.14L1398.38,820.14L1459.01,757.014L1536.21,757.014L1475.57,820.14Z" style="fill:rgb(234,113,139);fill-rule:nonzero;"></path>
        <path d="M1629.01,757.482L1704.9,757.482L1645.17,819.672L1569.27,819.672L1629.01,757.482Z" style="fill:rgb(98,203,236);"></path>
        <path d="M1570.37,819.204L1644.97,819.204L1703.81,757.949L1629.21,757.949L1570.37,819.204ZM1645.37,820.14L1568.18,820.14L1628.81,757.014L1706,757.014L1645.37,820.14Z" style="fill:rgb(98,203,236);fill-rule:nonzero;"></path>
        <path d="M1788.78,757.482L1864.68,757.482L1804.94,819.672L1729.04,819.672L1788.78,757.482Z" style="fill:rgb(234,113,139);"></path>
        <path d="M1730.14,819.204L1804.74,819.204L1863.58,757.949L1788.98,757.949L1730.14,819.204ZM1805.14,820.14L1727.95,820.14L1788.58,757.014L1865.77,757.014L1805.14,820.14Z" style="fill:rgb(234,113,139);fill-rule:nonzero;"></path>
        <path d="M1958.58,757.482L2034.47,757.482L1974.74,819.672L1898.84,819.672L1958.58,757.482Z" style="fill:rgb(98,203,236);"></path>
        <path d="M1899.94,819.204L1974.54,819.204L2033.38,757.949L1958.78,757.949L1899.94,819.204ZM1974.94,820.14L1897.74,820.14L1958.38,757.014L2035.57,757.014L1974.94,820.14Z" style="fill:rgb(98,203,236);fill-rule:nonzero;"></path>
        <path d="M648.896,757.482L724.998,757.482L665.262,819.672L589.366,819.672L648.896,757.482Z" style="fill:rgb(98,203,236);"></path>
        <path d="M590.46,819.204L665.063,819.204L723.901,757.949L649.096,757.949L590.46,819.204ZM665.461,820.14L588.271,820.14L648.697,757.014L726.096,757.014L665.461,820.14Z" style="fill:rgb(98,203,236);fill-rule:nonzero;"></path>
        <path d="M502.217,1824.54L502.217,1751.5L564.408,1808.78L564.408,1882.02L502.217,1824.54Z" style="fill:rgb(234,113,139);"></path>
        <path d="M502.685,1824.33L563.94,1880.95L563.94,1808.99L502.685,1752.57L502.685,1824.33ZM564.875,1883.09L501.75,1824.74L501.75,1750.44L564.875,1808.58L564.875,1883.09Z" style="fill:rgb(234,113,139);fill-rule:nonzero;"></path>
        <path d="M502.217,1661.29L502.217,1588.05L564.408,1645.54L564.408,1718.77L502.217,1661.29Z" style="fill:rgb(98,203,236);"></path>
        <path d="M502.685,1661.08L563.94,1717.7L563.94,1645.74L502.685,1589.12L502.685,1661.08ZM564.875,1719.84L501.75,1661.49L501.75,1586.98L564.875,1645.33L564.875,1719.84Z" style="fill:rgb(98,203,236);fill-rule:nonzero;"></path>
        <path d="M502.217,1510.72L502.217,1437.48L564.408,1494.97L564.408,1568.21L502.217,1510.72Z" style="fill:rgb(234,113,139);"></path>
        <path d="M502.685,1510.52L563.94,1567.14L563.94,1495.17L502.685,1438.55L502.685,1510.52ZM564.875,1569.28L501.75,1510.93L501.75,1436.41L564.875,1494.77L564.875,1569.28Z" style="fill:rgb(234,113,139);fill-rule:nonzero;"></path>
        <path d="M502.217,1347.27L502.217,1274.23L564.408,1331.72L564.408,1404.75L502.217,1347.27Z" style="fill:rgb(98,203,236);"></path>
        <path d="M502.685,1347.06L563.94,1403.68L563.94,1331.92L502.685,1275.3L502.685,1347.06ZM564.875,1405.82L501.75,1347.47L501.75,1273.17L564.875,1331.51L564.875,1405.82Z" style="fill:rgb(98,203,236);fill-rule:nonzero;"></path>
        <path d="M502.217,1193.63L502.217,1120.6L564.408,1177.88L564.408,1251.12L502.217,1193.63Z" style="fill:rgb(234,113,139);"></path>
        <path d="M502.685,1193.43L563.94,1250.05L563.94,1178.09L502.685,1121.67L502.685,1193.43ZM564.875,1252.19L501.75,1193.84L501.75,1119.53L564.875,1177.68L564.875,1252.19Z" style="fill:rgb(234,113,139);fill-rule:nonzero;"></path>
        <path d="M502.217,1030.38L502.217,957.145L564.408,1014.63L564.408,1087.87L502.217,1030.38Z" style="fill:rgb(98,203,236);"></path>
        <path d="M502.685,1030.18L563.94,1086.8L563.94,1014.84L502.685,958.214L502.685,1030.18ZM564.875,1088.94L501.75,1030.59L501.75,956.077L564.875,1014.43L564.875,1088.94Z" style="fill:rgb(98,203,236);fill-rule:nonzero;"></path>
        <path d="M502.217,888L502.217,814.967L564.408,872.247L564.408,945.485L502.217,888Z" style="fill:rgb(234,113,139);"></path>
        <path d="M502.685,887.795L563.94,944.416L563.94,872.453L502.685,816.033L502.685,887.795ZM564.875,946.553L501.75,888.204L501.75,813.901L564.875,872.042L564.875,946.553Z" style="fill:rgb(234,113,139);fill-rule:nonzero;"></path>
        <path d="M2060.86,1822.08L2060.86,1750.69L2123.05,1806.74L2123.05,1878.14L2060.86,1822.08Z" style="fill:rgb(234,113,139);"></path>
        <path d="M2061.33,1821.87L2122.59,1877.09L2122.59,1806.95L2061.33,1751.74L2061.33,1821.87ZM2123.52,1879.19L2060.4,1822.29L2060.4,1749.64L2123.52,1806.53L2123.52,1879.19Z" style="fill:rgb(234,113,139);fill-rule:nonzero;"></path>
        <path d="M2060.86,1662.72L2060.86,1591.32L2123.05,1647.38L2123.05,1718.77L2060.86,1662.72Z" style="fill:rgb(98,203,236);"></path>
        <path d="M2061.33,1662.51L2122.59,1717.72L2122.59,1647.58L2061.33,1592.37L2061.33,1662.51ZM2123.52,1719.82L2060.4,1662.93L2060.4,1590.27L2123.52,1647.17L2123.52,1719.82Z" style="fill:rgb(98,203,236);fill-rule:nonzero;"></path>
        <path d="M2060.86,1515.63L2060.86,1444.23L2123.05,1500.29L2123.05,1571.68L2060.86,1515.63Z" style="fill:rgb(234,113,139);"></path>
        <path d="M2061.33,1515.42L2122.59,1570.63L2122.59,1500.5L2061.33,1445.28L2061.33,1515.42ZM2123.52,1572.73L2060.4,1515.84L2060.4,1443.18L2123.52,1500.08L2123.52,1572.73Z" style="fill:rgb(234,113,139);fill-rule:nonzero;"></path>
        <path d="M2060.86,1356.27L2060.86,1284.87L2123.05,1340.93L2123.05,1412.32L2060.86,1356.27Z" style="fill:rgb(98,203,236);"></path>
        <path d="M2061.33,1356.06L2122.59,1411.27L2122.59,1341.13L2061.33,1285.92L2061.33,1356.06ZM2123.52,1413.37L2060.4,1356.48L2060.4,1283.82L2061.17,1284.53L2123.52,1340.72L2123.52,1413.37Z" style="fill:rgb(98,203,236);fill-rule:nonzero;"></path>
        <path d="M2060.86,1206.32L2060.86,1134.92L2123.05,1190.97L2123.05,1262.37L2060.86,1206.32Z" style="fill:rgb(234,113,139);"></path>
        <path d="M2061.33,1206.11L2122.59,1261.32L2122.59,1191.18L2061.33,1135.97L2061.33,1206.11ZM2123.52,1263.42L2122.74,1262.72L2060.4,1206.52L2060.4,1133.87L2061.17,1134.57L2123.52,1190.77L2123.52,1263.42Z" style="fill:rgb(234,113,139);fill-rule:nonzero;"></path>
        <path d="M2060.86,1046.75L2060.86,975.557L2123.05,1031.61L2123.05,1103.01L2060.86,1046.75Z" style="fill:rgb(98,203,236);"></path>
        <path d="M2061.33,1046.54L2122.59,1101.95L2122.59,1031.82L2061.33,976.608L2061.33,1046.54ZM2123.52,1104.06L2060.4,1046.96L2060.4,974.506L2061.17,975.21L2123.52,1031.4L2123.52,1104.06Z" style="fill:rgb(98,203,236);fill-rule:nonzero;"></path>
        <path d="M2060.86,907.843L2060.86,836.447L2123.05,892.705L2123.05,963.896L2060.86,907.843Z" style="fill:rgb(234,113,139);"></path>
        <path d="M2061.33,907.636L2122.59,962.846L2122.59,892.913L2061.33,837.5L2061.33,907.636ZM2123.52,964.948L2122.74,964.244L2060.4,908.051L2060.4,835.394L2123.52,892.497L2123.52,964.948Z" style="fill:rgb(234,113,139);fill-rule:nonzero;"></path>
        <path d="M806.418,1829.65L882.519,1829.65L822.784,1891.84L746.683,1891.84L806.418,1829.65Z" style="fill:rgb(234,113,139);"></path>
        <path d="M747.78,1891.38L822.585,1891.38L881.422,1830.12L806.617,1830.12L747.78,1891.38ZM822.983,1892.31L745.585,1892.31L806.219,1829.18L883.617,1829.18L822.983,1892.31Z" style="fill:rgb(234,113,139);fill-rule:nonzero;"></path>
        <path d="M976.214,1829.65L1052.32,1829.65L992.58,1891.84L916.479,1891.84L976.214,1829.65Z" style="fill:rgb(98,203,236);"></path>
        <path d="M917.576,1891.38L992.38,1891.38L1051.22,1830.12L976.414,1830.12L917.576,1891.38ZM992.78,1892.31L915.381,1892.31L976.014,1829.18L1053.41,1829.18L992.78,1892.31Z" style="fill:rgb(98,203,236);fill-rule:nonzero;"></path>
        <path d="M1132.71,1829.65L1208.81,1829.65L1149.08,1891.84L1072.98,1891.84L1132.71,1829.65Z" style="fill:rgb(234,113,139);"></path>
        <path d="M1074.07,1891.38L1148.88,1891.38L1207.72,1830.12L1132.91,1830.12L1074.07,1891.38ZM1149.28,1892.31L1071.88,1892.31L1132.51,1829.18L1209.91,1829.18L1149.28,1892.31Z" style="fill:rgb(234,113,139);fill-rule:nonzero;"></path>
        <path d="M1302.51,1829.65L1378.61,1829.65L1318.87,1891.84L1242.77,1891.84L1302.51,1829.65Z" style="fill:rgb(98,203,236);"></path>
        <path d="M1243.87,1891.38L1318.67,1891.38L1377.51,1830.12L1302.71,1830.12L1243.87,1891.38ZM1319.07,1892.31L1241.68,1892.31L1302.31,1829.18L1379.71,1829.18L1319.07,1892.31Z" style="fill:rgb(98,203,236);fill-rule:nonzero;"></path>
        <path d="M1459.21,1829.65L1535.11,1829.65L1475.37,1891.84L1399.48,1891.84L1459.21,1829.65Z" style="fill:rgb(234,113,139);"></path>
        <path d="M1400.57,1891.38L1475.17,1891.38L1534.01,1830.12L1459.41,1830.12L1400.57,1891.38ZM1475.57,1892.31L1398.38,1892.31L1459.01,1829.18L1536.21,1829.18L1475.57,1892.31Z" style="fill:rgb(234,113,139);fill-rule:nonzero;"></path>
        <path d="M1629.01,1829.65L1704.9,1829.65L1645.17,1891.84L1569.27,1891.84L1629.01,1829.65Z" style="fill:rgb(98,203,236);"></path>
        <path d="M1570.37,1891.38L1644.97,1891.38L1703.81,1830.12L1629.21,1830.12L1570.37,1891.38ZM1645.37,1892.31L1568.18,1892.31L1628.81,1829.18L1706,1829.18L1645.37,1892.31Z" style="fill:rgb(98,203,236);fill-rule:nonzero;"></path>
        <path d="M1788.78,1829.65L1864.68,1829.65L1804.94,1891.84L1729.04,1891.84L1788.78,1829.65Z" style="fill:rgb(234,113,139);"></path>
        <path d="M1730.14,1891.38L1804.74,1891.38L1863.58,1830.12L1788.98,1830.12L1730.14,1891.38ZM1805.14,1892.31L1727.95,1892.31L1788.58,1829.18L1865.77,1829.18L1805.14,1892.31Z" style="fill:rgb(234,113,139);fill-rule:nonzero;"></path>
        <path d="M1958.58,1829.65L2034.47,1829.65L1974.74,1891.84L1898.84,1891.84L1958.58,1829.65Z" style="fill:rgb(98,203,236);"></path>
        <path d="M1899.94,1891.38L1974.54,1891.38L2033.38,1830.12L1958.78,1830.12L1899.94,1891.38ZM1974.94,1892.31L1897.74,1892.31L1958.38,1829.18L2035.57,1829.18L1974.94,1892.31Z" style="fill:rgb(98,203,236);fill-rule:nonzero;"></path>
        <path d="M648.896,1829.65L724.998,1829.65L665.262,1891.84L589.366,1891.84L648.896,1829.65Z" style="fill:rgb(98,203,236);"></path>
        <path d="M590.46,1891.38L665.063,1891.38L723.901,1830.12L649.096,1830.12L590.46,1891.38ZM665.461,1892.31L588.271,1892.31L648.697,1829.18L726.096,1829.18L665.461,1892.31Z" style="fill:rgb(98,203,236);fill-rule:nonzero;"></path>
        <path d="M1311.92,1388.39L1619.8,1172.15L1800.44,1045.11L1738.45,1076.62L1311.92,1292.85L885.179,1076.62L823.398,1045.11L1004.04,1172.15L1311.92,1388.39Z" style="fill:rgb(223,230,255);"></path>
        <path d="M829.067,1048.53L1004.3,1171.77L1311.92,1387.81L1619.53,1171.77L1794.82,1048.49L1738.67,1077.03L1311.92,1293.37L1311.71,1293.27L884.968,1077.03L829.067,1048.53ZM1311.92,1388.96L1311.65,1388.77L1003.77,1172.53L823.129,1045.49L823.61,1044.7L885.391,1076.2L1311.92,1292.33L1738.24,1076.2L1800.23,1044.7L1800.71,1045.49L1620.07,1172.53L1311.92,1388.96Z" style="fill:rgb(223,230,255);fill-rule:nonzero;"></path>
        <path d="M2433.25,1305.81L2431.89,1302.8C2469.57,1285.82 2490.43,1264.59 2495.68,1237.92C2503.7,1197.13 2474.57,1142.46 2406.62,1070.8L2409.02,1068.53C2477.75,1141.03 2507.16,1196.64 2498.91,1238.55C2493.44,1266.35 2471.97,1288.35 2433.25,1305.81Z" style="fill:white;fill-rule:nonzero;"></path>
        <path d="M2456.71,1155.38L2429.5,1105.26L2305.33,1173.38L2173.38,1163.76L2166.83,1199.36L2311.06,1217.36L2456.71,1155.38Z" style="fill:rgb(10,106,221);"></path>
        <path d="M2167.38,1198.96L2310.99,1216.88L2456.06,1155.15L2429.32,1105.89L2305.43,1173.86L2305.3,1173.85L2173.76,1164.26L2167.38,1198.96ZM2311.12,1217.84L2311,1217.83L2166.28,1199.76L2172.99,1163.27L2173.41,1163.3L2305.23,1172.9L2429.69,1104.62L2457.37,1155.61L2456.9,1155.81L2311.12,1217.84Z" style="fill:rgb(10,106,221);fill-rule:nonzero;"></path>
        <path d="M2429.5,1803.47L2470.62,1810.63L2468.17,1857.88L2430.53,1856.66L2429.5,1803.47Z" style="fill:rgb(237,131,92);"></path>
        <path d="M2430.99,1856.2L2467.73,1857.4L2470.14,1811.02L2429.98,1804.02L2430.99,1856.2ZM2468.61,1858.36L2430.07,1857.11L2429.03,1802.91L2471.11,1810.24L2471.09,1810.65L2468.61,1858.36Z" style="fill:rgb(237,131,92);fill-rule:nonzero;"></path>
        <path d="M2287.73,1803.47L2326.6,1817.17L2315.15,1863.2L2278.32,1855.84L2287.73,1803.47Z" style="fill:rgb(237,131,92);"></path>
        <path d="M2278.87,1855.47L2314.8,1862.66L2326.05,1817.47L2288.1,1804.09L2278.87,1855.47ZM2315.49,1863.75L2277.78,1856.21L2287.37,1802.84L2287.89,1803.03L2327.16,1816.87L2327.06,1817.28L2315.49,1863.75Z" style="fill:rgb(237,131,92);fill-rule:nonzero;"></path>
        <path d="M2151.9,1264.41C2143.92,1268.71 2139.62,1277.51 2125.3,1265.03C2122.03,1262.37 2112.62,1260.12 2107.51,1260.12C2101.98,1260.12 2093.8,1258.48 2095.23,1265.03C2096.05,1268.51 2115.28,1264.41 2117.33,1274.85C2118.14,1279.35 2094.21,1289.17 2081.73,1291.21C2076,1292.24 2063.93,1292.24 2075.18,1302.47C2082.96,1309.42 2102.19,1306.97 2112.62,1304.72C2120.6,1303.28 2138.19,1300.01 2143.92,1294.69C2151.49,1287.53 2163.76,1281.19 2173.99,1280.37C2178.29,1279.96 2179.11,1267.89 2173.58,1262.37C2171.13,1259.91 2162.74,1260.53 2158.24,1261.55C2157.42,1261.55 2156.6,1262.37 2151.9,1264.41Z" style="fill:rgb(237,131,92);"></path>
        <path d="M2101.59,1260.41C2099.23,1260.41 2097.08,1260.66 2096.12,1261.81C2095.52,1262.52 2095.38,1263.54 2095.69,1264.93C2095.91,1265.87 2098.91,1266.15 2101.82,1266.42C2107.98,1267 2116.42,1267.8 2117.78,1274.76C2117.89,1275.34 2117.7,1275.97 2117.23,1276.64C2113.74,1281.58 2093.14,1289.82 2081.81,1291.68C2081.1,1291.8 2080.29,1291.91 2079.43,1292.03C2076.01,1292.5 2071.75,1293.09 2071.11,1295.17C2070.63,1296.7 2072.11,1299.04 2075.5,1302.12C2083.96,1309.69 2105.98,1305.67 2112.52,1304.26C2119.45,1303.02 2137.82,1299.72 2143.6,1294.35C2151.77,1286.62 2164.25,1280.68 2173.95,1279.91C2175.28,1279.78 2176.02,1278.25 2176.35,1277.35C2177.79,1273.33 2176.88,1266.32 2173.25,1262.7C2171.08,1260.53 2163.2,1260.9 2158.34,1262.01C2157.93,1262.02 2157.53,1262.22 2156.66,1262.67C2155.76,1263.14 2154.39,1263.84 2152.1,1264.84C2150.53,1265.68 2149.1,1266.71 2147.7,1267.71C2142.06,1271.77 2136.72,1275.6 2125,1265.38C2121.88,1262.85 2112.61,1260.59 2107.51,1260.59C2106.59,1260.59 2105.61,1260.54 2104.61,1260.5C2103.62,1260.45 2102.58,1260.41 2101.59,1260.41ZM2092.65,1307.51C2085.75,1307.51 2078.89,1306.41 2074.87,1302.81C2071.14,1299.42 2069.61,1296.83 2070.21,1294.89C2071.03,1292.24 2075.43,1291.64 2079.31,1291.1C2080.15,1290.99 2080.95,1290.88 2081.65,1290.75C2092.83,1288.92 2113.09,1280.89 2116.46,1276.1C2116.79,1275.64 2116.92,1275.25 2116.86,1274.93C2115.64,1268.66 2107.6,1267.91 2101.73,1267.35C2097.91,1266.99 2095.15,1266.73 2094.78,1265.14C2094.41,1263.46 2094.62,1262.14 2095.4,1261.21C2097.08,1259.22 2100.93,1259.4 2104.66,1259.56C2105.64,1259.61 2106.61,1259.65 2107.51,1259.65C2112.87,1259.65 2122.28,1261.97 2125.6,1264.67C2136.78,1274.41 2141.59,1270.95 2147.16,1266.96C2148.58,1265.93 2150.05,1264.88 2151.68,1264L2151.71,1263.99C2153.98,1263 2155.34,1262.3 2156.23,1261.84C2157.24,1261.32 2157.7,1261.08 2158.24,1261.08C2162.08,1260.2 2171.13,1259.25 2173.91,1262.04C2177.84,1265.97 2178.8,1273.29 2177.23,1277.66C2176.54,1279.58 2175.4,1280.71 2174.04,1280.84C2164.52,1281.6 2152.27,1287.43 2144.24,1295.03C2138.25,1300.59 2119.69,1303.92 2112.7,1305.18C2109.1,1305.95 2100.84,1307.51 2092.65,1307.51Z" style="fill:rgb(237,131,92);fill-rule:nonzero;"></path>
        <path d="M2351.56,1339.7C2349.72,1287.12 2344.4,1235.16 2332.95,1180.13C2326.81,1120.19 2301.85,1082.34 2372.02,1063.32C2394.73,1057.39 2412.73,1055.75 2435.23,1069.66C2469.4,1090.12 2492.51,1247.23 2495.58,1338.27C2439.94,1338.68 2407,1339.08 2351.56,1339.7Z" style="fill:rgb(44,126,254);"></path>
        <path d="M2400.13,1059.39C2391.46,1059.39 2382.43,1061.08 2372.14,1063.77C2316.32,1078.9 2321.13,1105.96 2328.41,1146.92C2330.18,1156.88 2332.19,1168.16 2333.41,1180.08C2344.07,1231.26 2349.98,1281.86 2352.01,1339.23L2376.26,1338.95C2418.17,1338.48 2448.49,1338.14 2495.1,1337.8C2492.16,1252.61 2469.64,1090.81 2434.99,1070.06C2422.59,1062.4 2411.68,1059.39 2400.13,1059.39ZM2351.11,1340.17L2351.09,1339.71C2349.08,1282.21 2343.17,1231.53 2332.49,1180.23C2331.26,1168.29 2329.35,1157.51 2327.49,1147.09C2320.12,1105.62 2315.25,1078.23 2371.9,1062.87C2395.6,1056.67 2413.6,1055.74 2435.48,1069.26C2455,1080.95 2469.12,1134.52 2477.53,1177.41C2487.29,1227.18 2494.38,1288.81 2496.05,1338.25L2496.06,1338.73L2495.58,1338.73C2448.71,1339.08 2418.32,1339.42 2376.27,1339.89L2351.11,1340.17Z" style="fill:rgb(44,126,254);fill-rule:nonzero;"></path>
        <path d="M2495.58,1338.27L2495.38,1338.68C2517.88,1401.07 2471.85,1589.69 2481.47,1818.2L2416.62,1818.2L2404.34,1547.14L2403.52,1548.57L2338.26,1820.85L2274.03,1821.47L2318.01,1538.13L2351.56,1339.7C2407,1339.08 2439.94,1338.68 2495.58,1338.27Z" style="fill:rgb(12,26,48);"></path>
        <path d="M2351.96,1340.16L2318.47,1538.21L2274.57,1821L2337.9,1820.39L2403.08,1548.39L2404.74,1545.5L2404.81,1547.11L2417.06,1817.73L2480.98,1817.73C2476.13,1701.65 2485.58,1596.38 2493.18,1511.77C2500.6,1429.11 2505.96,1369.39 2494.94,1338.83L2494.9,1338.74C2448.41,1339.08 2418.12,1339.42 2376.27,1339.89L2351.96,1340.16ZM2273.48,1821.94L2273.57,1821.4L2317.55,1538.06L2351.17,1339.23L2351.56,1339.23L2376.26,1338.95C2418.31,1338.48 2448.7,1338.14 2495.58,1337.8L2496.34,1337.79L2495.88,1338.71C2506.89,1369.51 2501.52,1429.24 2494.11,1511.85C2486.51,1596.55 2477.04,1701.97 2481.93,1818.18L2481.95,1818.66L2416.17,1818.66L2416.15,1818.22L2403.95,1548.8L2338.63,1821.32L2273.48,1821.94Z" style="fill:rgb(12,26,48);fill-rule:nonzero;"></path>
        <path d="M2314.13,1855.84L2276.28,1856.66C2239.46,1877.11 2178.9,1879.36 2190.77,1893.27C2224.11,1894.09 2257.46,1894.09 2290.6,1892.46L2296.94,1886.93C2297.15,1888.98 2297.55,1890.61 2297.76,1892.66L2326.6,1892.46C2326.6,1879.57 2324.76,1859.11 2314.13,1855.84Z" style="fill:rgb(12,26,48);"></path>
        <path d="M2190.99,1892.81C2228.25,1893.72 2260.78,1893.46 2290.41,1892L2297.32,1885.99L2297.41,1886.89C2297.51,1887.89 2297.66,1888.82 2297.81,1889.72C2297.94,1890.51 2298.08,1891.32 2298.18,1892.19L2326.14,1891.99C2326.09,1879.85 2324.43,1859.59 2314.06,1856.31L2276.4,1857.12C2260.02,1866.2 2238.8,1871.74 2221.75,1876.2C2204.78,1880.63 2191.39,1884.13 2189.86,1888.99C2189.49,1890.18 2189.86,1891.43 2190.99,1892.81ZM2232.1,1894.27C2218.96,1894.27 2205.22,1894.1 2190.76,1893.74L2190.55,1893.74L2190.41,1893.58C2188.97,1891.89 2188.48,1890.25 2188.97,1888.71C2190.65,1883.36 2203.59,1879.98 2221.51,1875.29C2238.55,1870.84 2259.76,1865.3 2276.05,1856.25L2276.27,1856.19L2314.19,1855.37L2314.26,1855.39C2325.41,1858.82 2327.07,1880.09 2327.07,1892.46L2327.07,1892.92L2297.34,1893.13L2297.29,1892.71C2297.19,1891.7 2297.04,1890.77 2296.89,1889.87C2296.78,1889.23 2296.67,1888.57 2296.58,1887.87L2290.78,1892.91L2290.62,1892.92C2272.36,1893.82 2252.99,1894.27 2232.1,1894.27Z" style="fill:rgb(12,26,48);fill-rule:nonzero;"></path>
        <path d="M2468.37,1855.84L2430.73,1856.66C2393.7,1877.11 2333.35,1879.36 2345.22,1893.27C2378.57,1894.09 2411.71,1894.09 2445.05,1892.46L2451.39,1886.93C2451.6,1888.98 2451.8,1890.61 2452.21,1892.66L2481.06,1892.46C2481.06,1879.57 2479.22,1859.11 2468.37,1855.84Z" style="fill:rgb(12,26,48);"></path>
        <path d="M2345.44,1892.81C2383.09,1893.73 2414.7,1893.47 2444.87,1892L2451.77,1885.99L2451.86,1886.89C2452.05,1888.77 2452.24,1890.33 2452.6,1892.19L2480.59,1891.99C2480.55,1879.84 2478.86,1859.58 2468.31,1856.31L2430.86,1857.12C2414.41,1866.18 2393.23,1871.72 2376.2,1876.18C2359.24,1880.61 2345.83,1884.12 2344.31,1888.99C2343.93,1890.17 2344.31,1891.42 2345.44,1892.81ZM2386.78,1894.28C2373.66,1894.28 2359.9,1894.1 2345.21,1893.74L2345,1893.74L2344.86,1893.58C2343.42,1891.88 2342.93,1890.24 2343.41,1888.71C2345.1,1883.35 2358.05,1879.96 2375.97,1875.27C2392.98,1870.82 2414.15,1865.28 2430.51,1856.25L2430.72,1856.19L2468.44,1855.37L2468.51,1855.39C2479.83,1858.81 2481.52,1880.08 2481.52,1892.46L2481.52,1892.92L2451.83,1893.13L2451.75,1892.75C2451.4,1891 2451.2,1889.53 2451.02,1887.88L2445.24,1892.91L2445.07,1892.92C2426.54,1893.83 2407.46,1894.28 2386.78,1894.28Z" style="fill:rgb(12,26,48);fill-rule:nonzero;"></path>
        <path d="M2371.24,1277.26C2367.57,1276.63 2364.22,1275.24 2361.2,1273.09C2338.51,1256.96 2333.07,1196.59 2344.07,1083.09L2344.08,1082.99L2344.36,1081.66C2345.39,1076.81 2346.13,1073.31 2348.59,1069.46L2348.72,1069.28C2351.43,1065.99 2353.5,1064.31 2355.84,1063.49L2357.02,1066.88C2355.37,1067.46 2353.79,1068.79 2351.56,1071.48C2349.49,1074.75 2348.85,1077.8 2347.87,1082.41L2347.63,1083.54C2336.79,1195.56 2341.76,1254.86 2363.28,1270.16C2370.97,1275.62 2380.91,1275.41 2393.7,1269.53L2395.2,1272.79C2386.15,1276.96 2378.14,1278.45 2371.24,1277.26Z" style="fill:white;fill-rule:nonzero;"></path>
        <path d="M2378.36,1111.19L2345.83,1115.89L2307.78,1179.11L2151.49,1256.44L2164.58,1290.6C2218.38,1272.6 2272.19,1254.8 2325.99,1236.8C2351.77,1217.16 2372.02,1196.09 2387.77,1174.81L2378.36,1111.19Z" style="fill:rgb(44,126,254);"></path>
        <path d="M2152.08,1256.67L2164.86,1290.02C2191.62,1281.06 2218.38,1272.16 2245.14,1263.26C2272.01,1254.31 2298.89,1245.37 2325.77,1236.38C2349.84,1218.03 2370.53,1197.28 2387.28,1174.69L2377.97,1111.72L2346.12,1116.33L2308.11,1179.47L2307.99,1179.53L2152.08,1256.67ZM2164.3,1291.19L2150.9,1256.21L2151.28,1256.02L2307.45,1178.75L2345.55,1115.46L2345.77,1115.43L2378.76,1110.66L2378.82,1111.12L2388.26,1174.94L2388.15,1175.09C2371.31,1197.83 2350.5,1218.71 2326.27,1237.17L2326.14,1237.24C2299.24,1246.24 2272.33,1255.19 2245.43,1264.14C2218.53,1273.09 2191.63,1282.04 2164.73,1291.04L2164.3,1291.19Z" style="fill:rgb(44,126,254);fill-rule:nonzero;"></path>
        <path d="M2375.7,1252.55L2503.56,1246C2523.81,1244.98 2541.2,1260.53 2542.22,1280.78L2545.7,1349.11C2546.73,1369.36 2530.97,1386.75 2510.72,1387.77L2382.86,1394.32C2362.61,1395.34 2345.22,1379.59 2344.2,1359.34L2340.72,1291.21C2339.7,1270.96 2355.45,1253.57 2375.7,1252.55Z" style="fill:rgb(132,178,254);"></path>
        <path d="M2505.45,1246.42C2504.83,1246.42 2504.21,1246.44 2503.58,1246.47L2375.73,1253.02C2355.67,1254.03 2340.18,1271.15 2341.19,1291.19L2344.66,1359.31C2345.68,1379.37 2362.84,1394.89 2382.84,1393.85L2510.7,1387.31C2520.37,1386.82 2529.3,1382.57 2535.84,1375.34C2542.39,1368.11 2545.72,1358.8 2545.23,1349.13L2541.76,1280.8C2540.78,1261.48 2524.68,1246.42 2505.45,1246.42ZM2380.98,1394.83C2361.26,1394.84 2344.74,1379.3 2343.73,1359.36L2340.25,1291.24C2339.22,1270.69 2355.11,1253.12 2375.68,1252.08L2503.54,1245.54C2524.1,1244.5 2541.66,1260.3 2542.69,1280.76L2546.17,1349.09C2546.67,1359 2543.25,1368.55 2536.53,1375.97C2529.83,1383.38 2520.67,1387.74 2510.74,1388.24L2382.89,1394.79C2382.25,1394.82 2381.61,1394.83 2380.98,1394.83Z" style="fill:rgb(132,178,254);fill-rule:nonzero;"></path>
        <path d="M2341.33,1303.9L2542.84,1293.67L2543.25,1301.65L2341.74,1311.88L2341.33,1303.9Z" style="fill:rgb(44,126,254);"></path>
        <path d="M2341.82,1304.34L2342.19,1311.39L2542.76,1301.2L2542.4,1294.16L2341.82,1304.34ZM2341.3,1312.37L2340.84,1303.45L2341.31,1303.43L2543.28,1293.18L2543.74,1302.09L2543.27,1302.11L2341.3,1312.37Z" style="fill:rgb(44,126,254);fill-rule:nonzero;"></path>
        <path d="M2426.64,1292.44L2456.92,1290.8C2459.99,1290.8 2462.85,1293.26 2462.85,1296.33L2463.46,1307.17C2463.67,1310.24 2461.21,1312.9 2457.94,1313.1L2427.87,1314.74C2424.59,1314.74 2421.94,1312.29 2421.73,1309.22L2421.12,1298.58C2421.12,1295.31 2423.57,1292.65 2426.64,1292.44Z" style="fill:white;"></path>
        <path d="M2426.67,1292.91C2423.82,1293.1 2421.58,1295.59 2421.58,1298.58L2422.2,1309.19C2422.39,1312.04 2424.88,1314.27 2427.87,1314.27L2457.91,1312.64C2459.43,1312.54 2460.79,1311.89 2461.76,1310.79C2462.65,1309.78 2463.08,1308.51 2463,1307.2L2462.38,1296.35C2462.38,1293.63 2459.83,1291.27 2456.92,1291.27L2426.67,1292.91ZM2427.89,1315.21C2424.39,1315.21 2421.49,1312.59 2421.26,1309.25L2420.65,1298.61C2420.65,1295.1 2423.27,1292.2 2426.61,1291.98L2426.62,1291.97L2456.89,1290.34C2460.39,1290.34 2463.32,1293.08 2463.32,1296.33L2463.93,1307.14C2464.03,1308.69 2463.51,1310.21 2462.46,1311.4C2461.33,1312.69 2459.74,1313.46 2457.97,1313.57L2427.89,1315.21Z" style="fill:white;fill-rule:nonzero;"></path>
        <path d="M2411.66,933.119C2414.52,972.192 2418.21,1020.47 2383.63,1041.54L2389.57,1062.61C2388.13,1076.32 2367.88,1084.3 2353.56,1088.39C2351.93,1082.25 2352.33,1076.12 2356.63,1069.77L2351.52,1051.36C2340.88,1053.2 2329.83,1054.43 2325.54,1048.7C2305.9,1015.77 2313.67,991.831 2309.78,933.937L2411.66,933.119Z" style="fill:rgb(237,131,92);"></path>
        <path d="M2351.85,1050.83L2357.14,1069.86L2357.02,1070.04C2353.26,1075.59 2352.26,1081.25 2353.89,1087.81C2369.29,1083.36 2387.68,1075.41 2389.09,1062.65L2383.09,1041.33L2383.39,1041.14C2417.58,1020.3 2414.06,972.234 2411.23,933.609L2411.23,933.59L2310.28,934.401C2311.39,951.158 2311.53,964.966 2311.65,977.163C2311.93,1006.14 2312.12,1025.29 2325.94,1048.46C2330.13,1054.06 2341.3,1052.66 2351.44,1050.9L2351.85,1050.83ZM2353.23,1088.97L2353.11,1088.51C2351.28,1081.64 2352.26,1075.48 2356.12,1069.69L2351.18,1051.89C2340.88,1053.66 2329.64,1054.96 2325.16,1048.98C2311.18,1025.55 2311,1006.3 2310.71,977.172C2310.59,964.868 2310.46,950.921 2309.32,933.969L2309.28,933.473L2412.09,932.648L2412.16,933.541C2415,972.305 2418.54,1020.52 2384.18,1041.76L2390.04,1062.57L2390.03,1062.66C2388.63,1076.12 2369.49,1084.32 2353.69,1088.84L2353.23,1088.97Z" style="fill:rgb(237,131,92);fill-rule:nonzero;"></path>
        <path d="M2369.11,927.595C2366.45,928.618 2370.13,941.711 2370.13,944.984C2370.95,955.622 2373.81,961.145 2373.41,974.238C2373.41,975.466 2379.34,980.989 2379.13,979.762C2378.93,973.42 2382.61,976.079 2381.79,964.623C2381.18,956.236 2381.18,946.825 2392.43,950.303C2400.61,952.758 2391.82,973.42 2392.84,977.307C2395.29,986.513 2398.16,989.172 2402.66,996.537C2411.05,1010.86 2406.96,1010.45 2412.48,994.491C2417.39,979.966 2418.62,949.076 2412.89,934.551C2407.36,920.435 2413.71,919.822 2390.79,919.822C2383.43,919.822 2374.22,925.55 2369.11,927.595Z" style="fill:rgb(6,3,82);"></path>
        <path d="M2388.16,949.087C2389.45,949.087 2390.91,949.344 2392.57,949.856C2398.56,951.654 2396.18,962.097 2394.44,969.723C2393.7,972.983 2393,976.061 2393.29,977.188C2395.15,984.143 2397.23,987.31 2400.12,991.697C2400.99,993.032 2401.99,994.546 2403.06,996.293C2404.93,999.486 2406.16,1001.9 2407.05,1003.67C2407.67,1004.88 2408.21,1005.94 2408.51,1006.31C2408.72,1005.9 2408.99,1004.8 2409.29,1003.65C2409.81,1001.59 2410.6,998.482 2412.04,994.338C2416.9,979.94 2418.08,948.982 2412.45,934.722C2411.22,931.575 2410.58,929.12 2410.07,927.148C2408.35,920.547 2408.28,920.29 2390.79,920.29C2385.45,920.29 2379.11,923.369 2374.02,925.844C2372.27,926.692 2370.63,927.493 2369.28,928.03L2369.28,928.032C2367.81,928.595 2369.12,935.75 2369.81,939.594C2370.23,941.912 2370.6,943.915 2370.6,944.984C2370.92,949.077 2371.55,952.481 2372.17,955.774C2373.13,960.91 2374.12,966.221 2373.87,974.253C2373.94,975.047 2377.33,978.392 2378.66,979.27C2378.67,976.831 2379.26,975.749 2379.9,974.607C2380.79,973 2381.79,971.178 2381.33,964.656C2380.92,959.124 2380.77,953 2384.06,950.378C2385.15,949.516 2386.5,949.087 2388.16,949.087ZM2408.54,1007.35C2407.88,1007.35 2407.47,1006.54 2406.22,1004.09C2405.33,1002.34 2404.11,999.934 2402.26,996.773C2401.2,995.046 2400.25,993.604 2399.33,992.21C2396.4,987.751 2394.28,984.529 2392.39,977.428C2392.03,976.077 2392.69,973.182 2393.53,969.515C2395.19,962.25 2397.46,952.298 2392.3,950.751C2388.85,949.684 2386.28,949.808 2384.65,951.109C2381.7,953.449 2381.87,959.294 2382.26,964.59C2382.75,971.387 2381.67,973.339 2380.71,975.059C2380.07,976.219 2379.52,977.22 2379.6,979.747C2379.65,980.046 2379.46,980.232 2379.38,980.295C2379.06,980.53 2378.66,980.33 2378.53,980.264C2377.37,979.675 2372.94,975.607 2372.94,974.238C2373.19,966.293 2372.25,961.267 2371.25,955.946C2370.63,952.628 2369.99,949.199 2369.67,945.02C2369.66,943.999 2369.31,942.035 2368.89,939.761C2367.64,932.878 2366.91,927.945 2368.94,927.161C2370.25,926.636 2371.81,925.879 2373.61,925.003C2378.79,922.486 2385.23,919.354 2390.79,919.354C2408.32,919.354 2409.08,919.637 2410.97,926.912C2411.48,928.861 2412.11,931.286 2413.32,934.38C2419.11,949.064 2417.94,979.788 2412.92,994.641C2411.5,998.75 2410.71,1001.84 2410.19,1003.88C2409.55,1006.42 2409.33,1007.27 2408.63,1007.35L2408.54,1007.35Z" style="fill:rgb(6,3,82);fill-rule:nonzero;"></path>
        <path d="M2309.58,921.867C2293.62,919.208 2249.84,920.435 2244.32,925.959C2239.41,930.664 2253.73,933.528 2260.28,934.551C2277.26,937.415 2291.58,938.029 2308.15,936.801L2309.37,936.597L2413.91,936.597L2413.91,924.118C2413.91,897.932 2390.39,876.657 2361.74,876.657C2333.72,876.657 2310.81,896.705 2309.58,921.867Z" style="fill:rgb(44,126,254);"></path>
        <path d="M2286.7,920.995C2268.68,920.995 2248.18,922.759 2244.65,926.289C2243.91,926.995 2243.65,927.629 2243.84,928.234C2244.52,930.392 2250.69,932.58 2260.35,934.088C2277.05,936.908 2291.33,937.581 2308.11,936.335L2309.3,936.135L2413.44,936.13L2413.44,924.118C2413.44,898.205 2390.25,877.124 2361.74,877.124C2333.98,877.124 2311.27,896.788 2310.05,921.89L2310.02,922.415L2309.5,922.328C2304.17,921.44 2295.75,920.995 2286.7,920.995ZM2292.66,937.866C2281.92,937.866 2271.62,936.938 2260.2,935.011C2252.91,933.873 2243.99,931.82 2242.95,928.514C2242.65,927.551 2243,926.577 2244,925.621C2249.84,919.776 2293.77,918.943 2309.14,921.324C2310.67,895.971 2333.67,876.189 2361.74,876.189C2390.77,876.189 2414.38,897.69 2414.38,924.118L2414.38,937.065L2309.37,937.065L2308.22,937.263C2302.83,937.662 2297.7,937.866 2292.66,937.866Z" style="fill:rgb(44,126,254);fill-rule:nonzero;"></path>
        <path d="M523.148,1319.96L537.096,1314.68C548.088,1311.65 566.02,1299.41 570.147,1305.58C572.555,1309.91 558.264,1313.89 557.067,1320.77C560.924,1334.4 601.058,1327.8 603.397,1339.04C607.21,1355.72 592.826,1373.31 576.224,1370.76C567.289,1369.94 547.145,1351.86 526.249,1339.42L523.148,1319.96Z" style="fill:rgb(246,150,104);fill-rule:nonzero;"></path>
        <path d="M415.812,1123.79L349.927,1067.92C337.359,1076.69 312.329,1191.51 323.773,1220.94C332.057,1241.16 450.582,1297.71 524.177,1341.94L538.674,1312.16L394.889,1204.27L415.812,1123.79Z" style="fill:rgb(22,183,158);"></path>
        <path d="M1481.7,526.029L1542.98,518.105C1549.43,528.776 1561.79,546.103 1562.32,550.223C1570.56,561.845 1505.79,624.497 1478.74,656.51L1455.29,615.517C1468.92,593.647 1498.18,565.543 1498.5,550.963L1481.7,526.029Z" style="fill:rgb(239,173,141);"></path>
        <path d="M1277.16,526.029L1215.99,518.105C1209.54,528.776 1197.07,546.103 1196.65,550.223C1188.41,561.845 1253.18,624.497 1280.12,656.51L1303.68,615.517C1289.94,593.647 1260.78,565.543 1260.36,550.963L1277.16,526.029Z" style="fill:rgb(239,173,141);"></path>
        <path d="M1379.96,705.321L1379.75,705.216L1379.43,705.321L1379.43,705.216L1285.19,694.228L1280.01,418.158C1293.75,406.536 1328.19,395.337 1351.75,395.02L1379.75,407.064L1407.64,395.02C1431.2,395.337 1463.95,407.487 1479.38,418.158L1476.84,693.911L1379.96,705.216L1379.96,705.321Z" style="fill:rgb(22,183,158);"></path>
        <path d="M1407.64,359.943L1352.17,365.015C1352.07,381.708 1351.86,398.401 1351.75,415.094C1350.9,436.436 1406.58,437.492 1407.22,415.516L1407.64,359.943Z" style="fill:rgb(228,146,115);"></path>
        <path d="M1391.9,250.487L1379.75,252.706L1367.49,250.487L1367.6,255.03L1324.28,263.165C1327.24,300.672 1323.96,360.577 1333.16,375.791C1341.92,389.103 1363.79,394.28 1379.75,393.963C1395.7,394.28 1417.57,389.103 1426.23,375.791C1435.43,360.577 1432.15,300.672 1435.11,263.165L1391.9,255.03L1391.9,250.487Z" style="fill:rgb(239,173,141);"></path>
        <path d="M1341.4,267.075C1331.04,271.935 1331.25,301.94 1326.18,319.373C1321.11,289.262 1311.6,260.736 1322.8,237.281C1329.14,223.863 1359.36,211.501 1383.23,214.882C1395.49,215.939 1405.95,218.58 1416.73,224.602C1425.39,230.519 1425.39,231.047 1426.34,236.435C1430.99,234.639 1437.65,238.337 1441.77,245.099C1453.7,263.694 1437.22,293.065 1433.21,319.795C1428.77,302.996 1432.47,271.935 1419.79,269.293C1408.17,265.912 1386.93,274.893 1380.28,275.316C1365.27,277.851 1354.81,261.475 1341.4,267.075Z" style="fill:rgb(26,22,79);"></path>
        <path d="M1325.65,315.252L1328.72,305.955C1339.6,344.307 1326.5,384.877 1379.43,382.659L1379.54,401.359C1318.36,388.681 1322.48,359.204 1325.65,315.252Z" style="fill:rgb(26,22,79);"></path>
        <path d="M1433.74,315.252L1430.78,305.955C1419.79,344.307 1432.89,384.877 1379.96,382.659L1379.85,401.359C1441.03,388.681 1436.91,359.204 1433.74,315.252Z" style="fill:rgb(26,22,79);"></path>
        <path d="M1352.17,384.877C1356.5,378.961 1360.73,369.24 1364.96,366.916C1367.91,366.177 1372.25,366.388 1376.58,366.494L1376.58,366.599C1377.64,366.705 1378.69,366.599 1379.75,366.599C1380.8,366.599 1381.76,366.705 1382.81,366.599L1382.81,366.494C1387.14,366.388 1391.48,366.177 1394.43,366.916C1398.66,369.24 1402.99,378.961 1407.22,384.877L1414.3,378.538C1410.92,371.882 1403.1,359.204 1398.66,357.302C1394.33,356.034 1386.51,356.562 1379.75,356.774C1372.99,356.562 1365.06,356.034 1360.73,357.302C1356.29,359.204 1348.47,371.882 1345.09,378.538L1352.17,384.877Z" style="fill:rgb(26,22,79);"></path>
        <path d="M1245.04,565.649L1514.35,565.649C1515.19,565.649 1515.83,566.494 1515.62,567.656C1509.49,601.465 1504,632.421 1498.82,660.842C1494.17,687.044 1489.73,711.238 1485.72,733.742C1485.61,734.376 1484.87,734.904 1484.24,734.904L1274.52,734.904C1273.78,734.904 1273.14,734.376 1273.04,733.742C1269.13,711.238 1264.8,687.044 1260.26,660.842C1255.18,632.421 1249.8,601.465 1243.77,567.656C1243.56,566.494 1244.09,565.649 1245.04,565.649Z" style="fill:rgb(98,202,235);"></path>
        <path d="M1522.91,742.3L1508.96,785.723C1531.25,799.669 1553.65,812.876 1575.94,826.822C1591.58,836.436 1614.72,772.516 1595.07,768.502L1522.91,742.3Z" style="fill:rgb(125,128,188);"></path>
        <path d="M1527.98,782.659L1535.48,759.838C1535.59,759.31 1536.11,759.099 1536.64,759.204L1540.13,760.366C1540.66,760.578 1540.97,761.106 1540.76,761.529L1533.26,784.455C1533.16,784.878 1532.63,785.195 1532.1,784.984L1528.61,783.821C1528.08,783.716 1527.87,783.187 1527.98,782.659Z" style="fill:rgb(208,202,228);"></path>
        <path d="M1539.39,787.836L1546.89,765.015C1547.1,764.487 1547.63,764.275 1548.05,764.381L1551.64,765.543C1552.07,765.649 1552.38,766.177 1552.17,766.706L1544.78,789.526C1544.57,790.055 1544.04,790.372 1543.51,790.16L1540.02,788.998C1539.49,788.893 1539.28,788.364 1539.39,787.836Z" style="fill:rgb(208,202,228);"></path>
        <path d="M1500.61,734.165L1485.4,778.116C1493.32,780.546 1501.35,782.976 1509.28,785.406C1521.64,777.799 1530.62,754.133 1523.01,742.617L1500.61,734.165Z" style="fill:rgb(239,173,141);"></path>
        <path d="M1231.31,614.777C1167.81,588.153 1119.21,695.39 1196.55,714.936L1488.68,785.089L1506.95,732.368C1415.88,694.439 1322.27,652.706 1231.31,614.777Z" style="fill:rgb(125,128,188);"></path>
        <path d="M1236.48,742.3L1250.43,785.723C1228.24,799.669 1205.74,812.876 1183.45,826.822C1167.81,836.436 1144.67,772.516 1164.43,768.502L1236.48,742.3Z" style="fill:rgb(175,150,198);"></path>
        <path d="M1231.41,782.659L1223.91,759.838C1223.8,759.31 1223.28,759.099 1222.75,759.204L1219.26,760.366C1218.73,760.578 1218.52,761.106 1218.63,761.529L1226.13,784.455C1226.23,784.878 1226.76,785.195 1227.29,784.984L1230.78,783.821C1231.31,783.716 1231.62,783.187 1231.41,782.659Z" style="fill:rgb(208,202,228);"></path>
        <path d="M1220,787.836L1212.5,765.015C1212.39,764.487 1211.87,764.275 1211.34,764.381L1207.75,765.543C1207.32,765.649 1207.01,766.177 1207.22,766.706L1214.72,789.526C1214.82,790.055 1215.35,790.372 1215.88,790.16L1219.37,788.998C1219.9,788.893 1220.11,788.364 1220,787.836Z" style="fill:rgb(208,202,228);"></path>
        <path d="M1258.78,734.165L1273.99,778.116C1266.07,780.546 1258.14,782.976 1250.11,785.406C1237.75,777.799 1228.77,754.133 1236.38,742.617L1258.78,734.165Z" style="fill:rgb(239,173,141);"></path>
        <path d="M1528.08,614.777C1591.58,588.153 1640.18,695.39 1562.84,714.936L1270.71,785.089L1252.44,732.368C1343.51,694.439 1437.12,652.706 1528.08,614.777Z" style="fill:rgb(175,150,198);"></path>
        <path d="M1317.84,469.294C1305.37,452.072 1292.9,434.957 1280.33,417.735C1269.97,428.3 1234.26,488.417 1211.23,523.705L1270.93,539.341L1317.84,469.294Z" style="fill:rgb(22,183,158);"></path>
        <path d="M1441.55,469.399C1454.02,452.284 1466.59,435.062 1479.06,417.947C1489.52,428.512 1525.13,488.523 1548.26,523.916L1488.57,539.552L1441.55,469.399Z" style="fill:rgb(22,183,158);"></path>
        <path d="M2438.56,696.905C2508.2,662.646 2595.16,516.028 2595.16,408.038C2592.98,325.475 2542.16,238.705 2434.45,233.096L2434.45,232.816C2432.95,232.839 2431.46,232.863 2429.98,232.909C2428.49,232.863 2426.99,232.839 2425.5,232.816L2425.5,233.096C2317.79,238.705 2266.98,325.475 2264.81,408.038C2264.81,516.028 2351.77,662.646 2421.38,696.905L2438.56,696.905Z" style="fill:rgb(221,96,128);"></path>
        <path d="M2292.31,310.705C2291.85,315.777 2291.54,320.848 2291.4,325.919C2291.4,449.659 2391.05,617.637 2470.81,656.874L2488.45,656.874C2543.81,596.791 2595.16,491.022 2595.16,408.038C2592.98,325.475 2542.16,238.705 2434.45,233.096L2434.45,232.816C2432.95,232.839 2431.46,232.863 2429.98,232.909C2428.49,232.863 2426.99,232.839 2425.5,232.816L2425.5,233.096C2361.72,236.415 2317.9,268.197 2292.31,310.705Z" style="fill:rgb(233,112,138);"></path>
        <path d="M2429.98,492.471C2481.96,492.471 2524.37,450.079 2524.37,398.083C2524.37,346.086 2481.96,303.695 2429.98,303.695C2377.99,303.695 2335.57,346.086 2335.57,398.083C2335.57,450.079 2377.99,492.471 2429.98,492.471Z" style="fill:rgb(213,239,251);"></path>
    </g>
</svg>
