<svg xmlns="http://www.w3.org/2000/svg" width="41" height="41" fill="none" viewBox="0 0 41 41"><g clip-path="url(#clip0_418_166)"><path fill="#D85604" d="M39.8301 28.972L30.8613 25.1283C30.4782 24.965 30.0524 24.9306 29.648 25.0302C29.2436 25.1299 28.8825 25.3582 28.6191 25.6808L24.6472 30.5336C18.4138 27.5945 13.3972 22.578 10.4582 16.3445L15.3109 12.3726C15.6342 12.1097 15.863 11.7486 15.9627 11.3441C16.0624 10.9395 16.0276 10.5135 15.8635 10.1304L12.0197 1.1617C11.8396 0.74882 11.5211 0.41172 11.1191 0.208525C10.7171 0.00532912 10.2568 -0.0512266 9.81758 0.0486098L1.48945 1.97048C1.06598 2.06827 0.688147 2.30672 0.417636 2.64689C0.147124 2.98707 -9.7552e-05 3.40889 4.8497e-08 3.84351C4.8497e-08 24.3836 16.6482 40.9998 37.1562 40.9998C37.591 41 38.013 40.8529 38.3534 40.5824C38.6937 40.3118 38.9323 39.9339 39.0301 39.5103L40.952 31.1822C41.0511 30.7408 40.9934 30.2787 40.7886 29.8753C40.5839 29.4719 40.2449 29.1525 39.8301 28.972Z"/></g><defs><clipPath id="clip0_418_166"><rect width="41" height="41" fill="#fff"/></clipPath></defs></svg>