<svg xmlns="http://www.w3.org/2000/svg" width="25" height="25" fill="none" viewBox="0 0 25 25"><g clip-path="url(#clip0_846_159)"><path fill="#D85604" d="M9.27625 10.3906H14.9472C15.3391 10.3906 15.6561 10.0762 15.6561 9.6875C15.6561 9.29895 15.3391 8.98438 14.9472 8.98438H9.27625C8.88453 8.98438 8.56738 9.29895 8.56738 9.6875C8.56738 10.0762 8.88453 10.3906 9.27625 10.3906Z"/><path fill="#D85604" d="M9.27625 13.2031H14.9472C15.3391 13.2031 15.6561 12.8887 15.6561 12.5C15.6561 12.1115 15.3391 11.7969 14.9472 11.7969H9.27625C8.88453 11.7969 8.56738 12.1115 8.56738 12.5C8.56738 12.8887 8.88453 13.2031 9.27625 13.2031Z"/><path fill="#D85604" d="M9.27625 16.0156H14.9472C15.3391 16.0156 15.6561 15.7012 15.6561 15.3125C15.6561 14.924 15.3391 14.6094 14.9472 14.6094H9.27625C8.88453 14.6094 8.56738 14.924 8.56738 15.3125C8.56738 15.7012 8.88453 16.0156 9.27625 16.0156Z"/><path fill="#D85604" d="M15.7056 5.66229C17.5822 6.63568 19.0171 8.33178 19.6071 10.3906H18.4916C18.2298 10.3906 17.9896 10.5334 17.8663 10.7621C17.7432 10.9907 17.757 11.2681 17.9018 11.4838C17.985 11.6262 20.544 15.9975 20.3828 15.7221C20.6459 16.1134 21.2994 16.1134 21.5624 15.7221C21.8327 15.2607 24.1836 11.3254 24.0909 11.4838C24.2357 11.2681 24.2493 10.9907 24.1262 10.7621C24.0031 10.5334 23.7627 10.3906 23.5011 10.3906H22.5314C21.8848 7.23132 19.8013 4.60852 16.9998 3.16528C17.0465 3.34161 17.0731 3.5238 17.0731 3.71094C17.0746 5.21533 15.8479 5.56854 15.7056 5.66229Z"/><path fill="#D85604" d="M11.0873 0.617887C10.8698 0.474516 10.5902 0.460783 10.3598 0.582914C10.1292 0.705228 9.98521 0.943448 9.98521 1.20309V2.16476C6.14216 2.93875 3.05986 5.77157 1.9397 9.44906C2.3185 9.15224 2.76819 8.98507 3.25093 8.98507C3.88633 8.98507 4.4645 9.26357 4.86029 9.72152C5.73807 7.47683 7.62636 5.73037 9.98521 5.06533V6.17184C9.98521 6.43148 10.1292 6.6697 10.3598 6.79201C10.5903 6.91415 10.87 6.90041 11.0873 6.75704C11.2309 6.67428 15.6379 4.13607 15.3603 4.29592C15.7549 4.035 15.7549 3.38681 15.3603 3.12588C14.8951 2.858 10.9276 0.525968 11.0873 0.617887Z"/><path fill="#D85604" d="M0.0972637 15.6441C0.220578 15.8728 0.460745 16.0156 0.722511 16.0156H2.0965C2.99865 18.5428 4.85391 20.6036 7.22087 21.8275C7.17528 21.6536 7.15035 21.4736 7.15035 21.289C7.14888 19.791 8.36577 19.4362 8.50773 19.3428C7.08076 18.6016 5.91131 17.439 5.17493 16.0156H5.73187C5.99364 16.0156 6.23381 15.8728 6.35712 15.6441C6.48025 15.4155 6.4664 15.1381 6.32168 14.9224C6.23842 14.78 3.67947 10.4087 3.84062 10.6841C3.57757 10.2928 2.92408 10.2928 2.66102 10.6841C2.4742 11.0032 -0.0201433 15.1835 0.132523 14.9224C-0.0120208 15.1381 -0.0258659 15.4155 0.0972637 15.6441Z"/><path fill="#D85604" d="M14.2383 18.8281C14.2383 18.5684 14.0943 18.3302 13.8638 18.2079C13.6334 18.0858 13.3537 18.0995 13.1362 18.243C12.9926 18.3256 8.58561 20.8638 8.86325 20.704C8.46876 20.9649 8.46876 21.6131 8.86325 21.874C9.32845 22.1419 13.2959 24.4739 13.1362 24.382C13.3537 24.5256 13.6334 24.5391 13.8638 24.417C14.0943 24.2949 14.2383 24.0565 14.2383 23.797V22.8351C17.4233 22.1937 20.0673 20.1276 21.5223 17.3489C21.3449 17.3954 21.1613 17.4218 20.9726 17.4218C19.7684 17.4218 19.3125 16.6608 18.9811 16.1135C17.9957 17.9514 16.2959 19.3545 14.2383 19.9346V18.8281Z"/></g><defs><clipPath id="clip0_846_159"><rect width="24.196" height="24" fill="#fff" transform="translate(0.0136719 0.5)"/></clipPath></defs></svg>