<?xml version="1.0" encoding="UTF-8"?>
<svg xmlns="http://www.w3.org/2000/svg" width="25" height="25" viewBox="0 0 25 25" fill="none">
  <path d="M15.5143 12.5H8.70912C7.66686 12.5 6.81879 13.3408 6.81879 14.375C6.81879 15.4092 7.66686 16.25 8.70912 16.25H15.5143C16.5569 16.25 17.4046 15.4092 17.4046 14.375C17.4046 13.3408 16.5569 12.5 15.5143 12.5ZM9.46525 15.5C8.83982 15.5 8.33106 14.9954 8.33106 14.375C8.33106 13.7546 8.83982 13.25 9.46525 13.25C10.0907 13.25 10.5994 13.7546 10.5994 14.375C10.5994 14.9954 10.0907 15.5 9.46525 15.5ZM14.7582 15.5C14.1327 15.5 13.624 14.9954 13.624 14.375C13.624 13.7546 14.1327 13.25 14.7582 13.25C15.3836 13.25 15.8924 13.7546 15.8924 14.375C15.8924 14.9954 15.3836 15.5 14.7582 15.5ZM21.9414 13.3191V7.18092C22.3805 7.0256 22.6975 6.61325 22.6975 6.125C22.6975 5.50464 22.1888 5 21.5633 5C20.9379 5 20.4291 5.50464 20.4291 6.125C20.4291 6.61325 20.7462 7.0256 21.1853 7.18092V13.3191C21.0303 13.3739 20.8899 13.4581 20.7742 13.5697C19.6215 9.91185 16.1744 7.25 12.1117 7.25C8.04926 7.25 4.60204 9.9119 3.4493 13.5697C3.3336 13.4581 3.19311 13.3739 3.03814 13.3191V7.18092C3.47726 7.0256 3.79427 6.61325 3.79427 6.125C3.79427 5.50464 3.28551 5 2.66008 5C2.03464 5 1.52588 5.50464 1.52588 6.125C1.52588 6.61325 1.84289 7.0256 2.28201 7.18092V13.3191C1.84289 13.4744 1.52588 13.8867 1.52588 14.375V17.375C1.52588 17.9954 2.03464 18.5 2.66008 18.5C3.01603 18.5 3.33027 18.3332 3.53837 18.078C4.18747 19.2189 5.40668 20 6.81879 20H17.4046C18.8167 20 20.0359 19.2189 20.6851 18.078C20.8931 18.3332 21.2074 18.5 21.5633 18.5C22.1888 18.5 22.6975 17.9954 22.6975 17.375V14.375C22.6975 13.8867 22.3805 13.4744 21.9414 13.3191ZM15.5143 17H8.70912C7.25003 17 6.06266 15.8223 6.06266 14.375C6.06266 12.9277 7.25003 11.75 8.70912 11.75H15.5143C16.9734 11.75 18.1608 12.9277 18.1608 14.375C18.1608 15.8223 16.9734 17 15.5143 17Z" fill="#D85604"></path>
</svg>
